<?xml version="1.0" encoding="UTF-8" standalone="no"?>
<!DOCTYPE svg PUBLIC "-//W3C//DTD SVG 1.1//EN"
 "http://www.w3.org/Graphics/SVG/1.1/DTD/svg11.dtd">
<!-- Generated by graphviz version 2.36.0 (20140111.2315)
 -->
<!-- Title: G Pages: 1 -->
<svg width="2699pt" height="1812pt"
 viewBox="0.00 0.00 2699.20 1811.76" xmlns="http://www.w3.org/2000/svg" xmlns:xlink="http://www.w3.org/1999/xlink">
<g id="graph0" class="graph" transform="scale(1 1) rotate(0) translate(21.6 1790.16)">
<title>G</title>
<polygon fill="#111111" stroke="none" points="-21.6,21.6 -21.6,-1790.16 2677.6,-1790.16 2677.6,21.6 -21.6,21.6"/>
<!-- ../config.js -->
<g id="node1" class="node"><title>../config.js</title>
<path fill="none" stroke="#cfffac" d="M2648.33,-212.058C2648.33,-212.058 2583.67,-212.058 2583.67,-212.058 2579.83,-212.058 2576,-208.225 2576,-204.391 2576,-204.391 2576,-196.725 2576,-196.725 2576,-192.891 2579.83,-189.058 2583.67,-189.058 2583.67,-189.058 2648.33,-189.058 2648.33,-189.058 2652.17,-189.058 2656,-192.891 2656,-196.725 2656,-196.725 2656,-204.391 2656,-204.391 2656,-208.225 2652.17,-212.058 2648.33,-212.058"/>
<text text-anchor="middle" x="2616" y="-196.858" font-family="Arial" font-size="14.00" fill="#cfffac">../config.js</text>
</g>
<!-- ../observer/array.js -->
<g id="node2" class="node"><title>../observer/array.js</title>
<path fill="none" stroke="#ff6c60" d="M2532.33,-548.058C2532.33,-548.058 2415.67,-548.058 2415.67,-548.058 2411.83,-548.058 2408,-544.225 2408,-540.391 2408,-540.391 2408,-532.725 2408,-532.725 2408,-528.891 2411.83,-525.058 2415.67,-525.058 2415.67,-525.058 2532.33,-525.058 2532.33,-525.058 2536.17,-525.058 2540,-528.891 2540,-532.725 2540,-532.725 2540,-540.391 2540,-540.391 2540,-544.225 2536.17,-548.058 2532.33,-548.058"/>
<text text-anchor="middle" x="2474" y="-532.858" font-family="Arial" font-size="14.00" fill="#ff6c60">../observer/array.js</text>
</g>
<!-- ../util/index.js -->
<g id="node3" class="node"><title>../util/index.js</title>
<path fill="none" stroke="#ff6c60" d="M1663.83,-448.058C1663.83,-448.058 1582.17,-448.058 1582.17,-448.058 1578.33,-448.058 1574.5,-444.225 1574.5,-440.391 1574.5,-440.391 1574.5,-432.725 1574.5,-432.725 1574.5,-428.891 1578.33,-425.058 1582.17,-425.058 1582.17,-425.058 1663.83,-425.058 1663.83,-425.058 1667.67,-425.058 1671.5,-428.891 1671.5,-432.725 1671.5,-432.725 1671.5,-440.391 1671.5,-440.391 1671.5,-444.225 1667.67,-448.058 1663.83,-448.058"/>
<text text-anchor="middle" x="1623" y="-432.858" font-family="Arial" font-size="14.00" fill="#ff6c60">../util/index.js</text>
</g>
<!-- ../observer/array.js&#45;&gt;../util/index.js -->
<g id="edge1" class="edge"><title>../observer/array.js&#45;&gt;../util/index.js</title>
<path fill="none" stroke="#757575" d="M2407.89,-529.002C2248.43,-510.493 1846.92,-463.865 1786,-456.558 1751.49,-452.419 1712.87,-447.656 1681.99,-443.816"/>
<polygon fill="#757575" stroke="#757575" points="1682.19,-440.314 1671.84,-442.552 1681.33,-447.261 1682.19,-440.314"/>
</g>
<!-- ../observer/index.js -->
<g id="node6" class="node"><title>../observer/index.js</title>
<path fill="none" stroke="#ff6c60" d="M2301.33,-572.058C2301.33,-572.058 2182.67,-572.058 2182.67,-572.058 2178.83,-572.058 2175,-568.225 2175,-564.391 2175,-564.391 2175,-556.725 2175,-556.725 2175,-552.891 2178.83,-549.058 2182.67,-549.058 2182.67,-549.058 2301.33,-549.058 2301.33,-549.058 2305.17,-549.058 2309,-552.891 2309,-556.725 2309,-556.725 2309,-564.391 2309,-564.391 2309,-568.225 2305.17,-572.058 2301.33,-572.058"/>
<text text-anchor="middle" x="2242" y="-556.858" font-family="Arial" font-size="14.00" fill="#ff6c60">../observer/index.js</text>
</g>
<!-- ../util/index.js&#45;&gt;../observer/index.js -->
<g id="edge24" class="edge"><title>../util/index.js&#45;&gt;../observer/index.js</title>
<path fill="none" stroke="#757575" d="M1671.58,-447.134C1703.54,-457.436 1746.81,-472.084 1786,-481.558 1922.51,-514.56 2086,-535.238 2175.11,-547.872"/>
<polygon fill="#757575" stroke="#757575" points="2174.68,-551.346 2185.08,-549.297 2175.67,-544.417 2174.68,-551.346"/>
</g>
<!-- ../util/debug.js -->
<g id="node11" class="node"><title>../util/debug.js</title>
<path fill="none" stroke="#c6c5fe" d="M2517.83,-212.058C2517.83,-212.058 2430.17,-212.058 2430.17,-212.058 2426.33,-212.058 2422.5,-208.225 2422.5,-204.391 2422.5,-204.391 2422.5,-196.725 2422.5,-196.725 2422.5,-192.891 2426.33,-189.058 2430.17,-189.058 2430.17,-189.058 2517.83,-189.058 2517.83,-189.058 2521.67,-189.058 2525.5,-192.891 2525.5,-196.725 2525.5,-196.725 2525.5,-204.391 2525.5,-204.391 2525.5,-208.225 2521.67,-212.058 2517.83,-212.058"/>
<text text-anchor="middle" x="2474" y="-196.858" font-family="Arial" font-size="14.00" fill="#c6c5fe">../util/debug.js</text>
</g>
<!-- ../util/index.js&#45;&gt;../util/debug.js -->
<g id="edge25" class="edge"><title>../util/index.js&#45;&gt;../util/debug.js</title>
<path fill="none" stroke="#757575" d="M1627.36,-425.145C1640.11,-384.04 1689.74,-242.779 1786,-181.558 1896.16,-111.493 2246.23,-104.525 2372,-139.558 2402.25,-147.985 2432.49,-168.197 2451.89,-183.055"/>
<polygon fill="#757575" stroke="#757575" points="2449.73,-185.809 2459.75,-189.244 2454.06,-180.309 2449.73,-185.809"/>
</g>
<!-- ../util/env.js -->
<g id="node12" class="node"><title>../util/env.js</title>
<path fill="none" stroke="#cfffac" d="M2509.83,-253.058C2509.83,-253.058 2438.17,-253.058 2438.17,-253.058 2434.33,-253.058 2430.5,-249.225 2430.5,-245.391 2430.5,-245.391 2430.5,-237.725 2430.5,-237.725 2430.5,-233.891 2434.33,-230.058 2438.17,-230.058 2438.17,-230.058 2509.83,-230.058 2509.83,-230.058 2513.67,-230.058 2517.5,-233.891 2517.5,-237.725 2517.5,-237.725 2517.5,-245.391 2517.5,-245.391 2517.5,-249.225 2513.67,-253.058 2509.83,-253.058"/>
<text text-anchor="middle" x="2474" y="-237.858" font-family="Arial" font-size="14.00" fill="#cfffac">../util/env.js</text>
</g>
<!-- ../util/index.js&#45;&gt;../util/env.js -->
<g id="edge26" class="edge"><title>../util/index.js&#45;&gt;../util/env.js</title>
<path fill="none" stroke="#757575" d="M1671.78,-429.741C1704,-425.297 1747.5,-419.595 1786,-415.558 1915.93,-401.935 2256.7,-429.982 2372,-368.558 2416.7,-344.743 2448.43,-291.733 2463.36,-262.286"/>
<polygon fill="#757575" stroke="#757575" points="2466.69,-263.459 2467.94,-252.939 2460.4,-260.383 2466.69,-263.459"/>
</g>
<!-- ../util/error.js -->
<g id="node13" class="node"><title>../util/error.js</title>
<path fill="none" stroke="#c6c5fe" d="M2281.33,-172.058C2281.33,-172.058 2202.67,-172.058 2202.67,-172.058 2198.83,-172.058 2195,-168.225 2195,-164.391 2195,-164.391 2195,-156.725 2195,-156.725 2195,-152.891 2198.83,-149.058 2202.67,-149.058 2202.67,-149.058 2281.33,-149.058 2281.33,-149.058 2285.17,-149.058 2289,-152.891 2289,-156.725 2289,-156.725 2289,-164.391 2289,-164.391 2289,-168.225 2285.17,-172.058 2281.33,-172.058"/>
<text text-anchor="middle" x="2242" y="-156.858" font-family="Arial" font-size="14.00" fill="#c6c5fe">../util/error.js</text>
</g>
<!-- ../util/index.js&#45;&gt;../util/error.js -->
<g id="edge27" class="edge"><title>../util/index.js&#45;&gt;../util/error.js</title>
<path fill="none" stroke="#757575" d="M1630.66,-424.949C1649.99,-392.371 1709.66,-299.604 1786,-255.558 1853.56,-216.58 2078.54,-182.298 2184.67,-167.846"/>
<polygon fill="#757575" stroke="#757575" points="2185.42,-171.276 2194.86,-166.469 2184.48,-164.339 2185.42,-171.276"/>
</g>
<!-- ../util/lang.js -->
<g id="node14" class="node"><title>../util/lang.js</title>
<path fill="none" stroke="#cfffac" d="M2279.33,-291.058C2279.33,-291.058 2204.67,-291.058 2204.67,-291.058 2200.83,-291.058 2197,-287.225 2197,-283.391 2197,-283.391 2197,-275.725 2197,-275.725 2197,-271.891 2200.83,-268.058 2204.67,-268.058 2204.67,-268.058 2279.33,-268.058 2279.33,-268.058 2283.17,-268.058 2287,-271.891 2287,-275.725 2287,-275.725 2287,-283.391 2287,-283.391 2287,-287.225 2283.17,-291.058 2279.33,-291.058"/>
<text text-anchor="middle" x="2242" y="-275.858" font-family="Arial" font-size="14.00" fill="#cfffac">../util/lang.js</text>
</g>
<!-- ../util/index.js&#45;&gt;../util/lang.js -->
<g id="edge28" class="edge"><title>../util/index.js&#45;&gt;../util/lang.js</title>
<path fill="none" stroke="#757575" d="M1637.65,-425.094C1664.24,-403.463 1725.69,-356.889 1786,-335.558 1804.69,-328.948 2069.88,-298.708 2186.57,-285.622"/>
<polygon fill="#757575" stroke="#757575" points="2187.17,-289.077 2196.71,-284.485 2186.39,-282.12 2187.17,-289.077"/>
</g>
<!-- ../util/next&#45;tick.js -->
<g id="node15" class="node"><title>../util/next&#45;tick.js</title>
<path fill="none" stroke="#c6c5fe" d="M1981.33,-288.058C1981.33,-288.058 1880.67,-288.058 1880.67,-288.058 1876.83,-288.058 1873,-284.225 1873,-280.391 1873,-280.391 1873,-272.725 1873,-272.725 1873,-268.891 1876.83,-265.058 1880.67,-265.058 1880.67,-265.058 1981.33,-265.058 1981.33,-265.058 1985.17,-265.058 1989,-268.891 1989,-272.725 1989,-272.725 1989,-280.391 1989,-280.391 1989,-284.225 1985.17,-288.058 1981.33,-288.058"/>
<text text-anchor="middle" x="1931" y="-272.858" font-family="Arial" font-size="14.00" fill="#c6c5fe">../util/next&#45;tick.js</text>
</g>
<!-- ../util/index.js&#45;&gt;../util/next&#45;tick.js -->
<g id="edge29" class="edge"><title>../util/index.js&#45;&gt;../util/next&#45;tick.js</title>
<path fill="none" stroke="#757575" d="M1634.01,-424.94C1657.54,-398.445 1719.46,-333.465 1786,-302.558 1809.79,-291.506 1837.82,-285.139 1862.8,-281.477"/>
<polygon fill="#757575" stroke="#757575" points="1863.49,-284.916 1872.93,-280.112 1862.55,-277.979 1863.49,-284.916"/>
</g>
<!-- ../util/options.js -->
<g id="node16" class="node"><title>../util/options.js</title>
<path fill="none" stroke="#c6c5fe" d="M1977.83,-368.058C1977.83,-368.058 1884.17,-368.058 1884.17,-368.058 1880.33,-368.058 1876.5,-364.225 1876.5,-360.391 1876.5,-360.391 1876.5,-352.725 1876.5,-352.725 1876.5,-348.891 1880.33,-345.058 1884.17,-345.058 1884.17,-345.058 1977.83,-345.058 1977.83,-345.058 1981.67,-345.058 1985.5,-348.891 1985.5,-352.725 1985.5,-352.725 1985.5,-360.391 1985.5,-360.391 1985.5,-364.225 1981.67,-368.058 1977.83,-368.058"/>
<text text-anchor="middle" x="1931" y="-352.858" font-family="Arial" font-size="14.00" fill="#c6c5fe">../util/options.js</text>
</g>
<!-- ../util/index.js&#45;&gt;../util/options.js -->
<g id="edge30" class="edge"><title>../util/index.js&#45;&gt;../util/options.js</title>
<path fill="none" stroke="#757575" d="M1653.77,-425.203C1685.98,-413.257 1739.04,-394.559 1786,-382.558 1811.96,-375.924 1840.97,-370.344 1866.11,-366.074"/>
<polygon fill="#757575" stroke="#757575" points="1866.98,-369.479 1876.27,-364.385 1865.83,-362.574 1866.98,-369.479"/>
</g>
<!-- ../util/props.js -->
<g id="node17" class="node"><title>../util/props.js</title>
<path fill="none" stroke="#c6c5fe" d="M1972.83,-448.058C1972.83,-448.058 1889.17,-448.058 1889.17,-448.058 1885.33,-448.058 1881.5,-444.225 1881.5,-440.391 1881.5,-440.391 1881.5,-432.725 1881.5,-432.725 1881.5,-428.891 1885.33,-425.058 1889.17,-425.058 1889.17,-425.058 1972.83,-425.058 1972.83,-425.058 1976.67,-425.058 1980.5,-428.891 1980.5,-432.725 1980.5,-432.725 1980.5,-440.391 1980.5,-440.391 1980.5,-444.225 1976.67,-448.058 1972.83,-448.058"/>
<text text-anchor="middle" x="1931" y="-432.858" font-family="Arial" font-size="14.00" fill="#c6c5fe">../util/props.js</text>
</g>
<!-- ../util/index.js&#45;&gt;../util/props.js -->
<g id="edge31" class="edge"><title>../util/index.js&#45;&gt;../util/props.js</title>
<path fill="none" stroke="#757575" d="M1671.81,-436.558C1725.65,-436.558 1813.16,-436.558 1871.15,-436.558"/>
<polygon fill="#757575" stroke="#757575" points="1871.26,-440.058 1881.26,-436.558 1871.26,-433.058 1871.26,-440.058"/>
</g>
<!-- ../observer/dep.js -->
<g id="node4" class="node"><title>../observer/dep.js</title>
<path fill="none" stroke="#ff6c60" d="M408.333,-488.058C408.333,-488.058 299.667,-488.058 299.667,-488.058 295.833,-488.058 292,-484.225 292,-480.391 292,-480.391 292,-472.725 292,-472.725 292,-468.891 295.833,-465.058 299.667,-465.058 299.667,-465.058 408.333,-465.058 408.333,-465.058 412.167,-465.058 416,-468.891 416,-472.725 416,-472.725 416,-480.391 416,-480.391 416,-484.225 412.167,-488.058 408.333,-488.058"/>
<text text-anchor="middle" x="354" y="-472.858" font-family="Arial" font-size="14.00" fill="#ff6c60">../observer/dep.js</text>
</g>
<!-- ../observer/dep.js&#45;&gt;../config.js -->
<g id="edge2" class="edge"><title>../observer/dep.js&#45;&gt;../config.js</title>
<path fill="none" stroke="#757575" d="M360.955,-465.085C374.182,-440.625 408.321,-382.872 452,-349.558 532.061,-288.497 567.961,-300.543 662,-264.558 1067.59,-109.358 1187.73,-82.5581 1622,-82.5581 1622,-82.5581 1622,-82.5581 2243,-82.5581 2264.02,-82.5581 2525.47,-155.864 2540,-161.558 2556.1,-167.865 2573.26,-176.627 2587.11,-184.248"/>
<polygon fill="#757575" stroke="#757575" points="2585.67,-187.456 2596.1,-189.298 2589.09,-181.351 2585.67,-187.456"/>
</g>
<!-- ../observer/dep.js&#45;&gt;../util/index.js -->
<g id="edge4" class="edge"><title>../observer/dep.js&#45;&gt;../util/index.js</title>
<path fill="none" stroke="#757575" d="M416.049,-468.156C515.516,-454.9 718.849,-429.608 892,-419.558 1144.02,-404.93 1208.03,-401.063 1460,-416.558 1494.69,-418.691 1533.32,-423.37 1564.15,-427.667"/>
<polygon fill="#757575" stroke="#757575" points="1563.9,-431.166 1574.3,-429.105 1564.89,-424.235 1563.9,-431.166"/>
</g>
<!-- ../observer/watcher.js -->
<g id="node5" class="node"><title>../observer/watcher.js</title>
<path fill="none" stroke="#ff6c60" d="M606.333,-556.058C606.333,-556.058 471.667,-556.058 471.667,-556.058 467.833,-556.058 464,-552.225 464,-548.391 464,-548.391 464,-540.725 464,-540.725 464,-536.891 467.833,-533.058 471.667,-533.058 471.667,-533.058 606.333,-533.058 606.333,-533.058 610.167,-533.058 614,-536.891 614,-540.725 614,-540.725 614,-548.391 614,-548.391 614,-552.225 610.167,-556.058 606.333,-556.058"/>
<text text-anchor="middle" x="539" y="-540.858" font-family="Arial" font-size="14.00" fill="#ff6c60">../observer/watcher.js</text>
</g>
<!-- ../observer/dep.js&#45;&gt;../observer/watcher.js -->
<g id="edge3" class="edge"><title>../observer/dep.js&#45;&gt;../observer/watcher.js</title>
<path fill="none" stroke="#757575" d="M397.547,-487.861C414.338,-494.675 433.907,-502.931 452,-509.558 471.712,-516.778 494.467,-523.593 511.618,-529.74"/>
<polygon fill="#757575" stroke="#757575" points="510.411,-533.026 521.002,-533.281 512.882,-526.476 510.411,-533.026"/>
</g>
<!-- ../observer/watcher.js&#45;&gt;../util/index.js -->
<g id="edge18" class="edge"><title>../observer/watcher.js&#45;&gt;../util/index.js</title>
<path fill="none" stroke="#757575" d="M571.512,-533.283C632.472,-512.035 771.192,-466.42 892,-446.558 1139.25,-405.908 1439.96,-422.077 1564.12,-431.552"/>
<polygon fill="#757575" stroke="#757575" points="1563.93,-435.047 1574.17,-432.333 1564.47,-428.068 1563.93,-435.047"/>
</g>
<!-- ../observer/watcher.js&#45;&gt;../observer/dep.js -->
<g id="edge15" class="edge"><title>../observer/watcher.js&#45;&gt;../observer/dep.js</title>
<path fill="none" stroke="#757575" d="M468.306,-533.21C462.763,-531.392 457.273,-529.489 452,-527.558 425.049,-517.686 394.822,-504.2 375.383,-493.147"/>
<polygon fill="#757575" stroke="#757575" points="377.137,-490.118 366.768,-487.944 373.518,-496.11 377.137,-490.118"/>
</g>
<!-- ../observer/scheduler.js -->
<g id="node8" class="node"><title>../observer/scheduler.js</title>
<path fill="none" stroke="#ff6c60" d="M831.833,-556.058C831.833,-556.058 686.167,-556.058 686.167,-556.058 682.333,-556.058 678.5,-552.225 678.5,-548.391 678.5,-548.391 678.5,-540.725 678.5,-540.725 678.5,-536.891 682.333,-533.058 686.167,-533.058 686.167,-533.058 831.833,-533.058 831.833,-533.058 835.667,-533.058 839.5,-536.891 839.5,-540.725 839.5,-540.725 839.5,-548.391 839.5,-548.391 839.5,-552.225 835.667,-556.058 831.833,-556.058"/>
<text text-anchor="middle" x="759" y="-540.858" font-family="Arial" font-size="14.00" fill="#ff6c60">../observer/scheduler.js</text>
</g>
<!-- ../observer/watcher.js&#45;&gt;../observer/scheduler.js -->
<g id="edge16" class="edge"><title>../observer/watcher.js&#45;&gt;../observer/scheduler.js</title>
<path fill="none" stroke="#757575" d="M614.109,-538.125C631.421,-537.8 650.046,-537.725 667.966,-537.9"/>
<polygon fill="#757575" stroke="#757575" points="668.083,-541.401 678.126,-538.027 668.171,-534.402 668.083,-541.401"/>
</g>
<!-- ../observer/traverse.js -->
<g id="node10" class="node"><title>../observer/traverse.js</title>
<path fill="none" stroke="#ff6c60" d="M1088.83,-826.058C1088.83,-826.058 953.167,-826.058 953.167,-826.058 949.333,-826.058 945.5,-822.225 945.5,-818.391 945.5,-818.391 945.5,-810.725 945.5,-810.725 945.5,-806.891 949.333,-803.058 953.167,-803.058 953.167,-803.058 1088.83,-803.058 1088.83,-803.058 1092.67,-803.058 1096.5,-806.891 1096.5,-810.725 1096.5,-810.725 1096.5,-818.391 1096.5,-818.391 1096.5,-822.225 1092.67,-826.058 1088.83,-826.058"/>
<text text-anchor="middle" x="1021" y="-810.858" font-family="Arial" font-size="14.00" fill="#ff6c60">../observer/traverse.js</text>
</g>
<!-- ../observer/watcher.js&#45;&gt;../observer/traverse.js -->
<g id="edge17" class="edge"><title>../observer/watcher.js&#45;&gt;../observer/traverse.js</title>
<path fill="none" stroke="#757575" d="M557.589,-555.907C608.428,-588.52 760.33,-684.644 892,-754.558 922.561,-770.785 958.284,-787.337 984.213,-798.935"/>
<polygon fill="#757575" stroke="#757575" points="983.08,-802.261 993.64,-803.126 985.924,-795.865 983.08,-802.261"/>
</g>
<!-- ../observer/index.js&#45;&gt;../observer/array.js -->
<g id="edge5" class="edge"><title>../observer/index.js&#45;&gt;../observer/array.js</title>
<path fill="none" stroke="#757575" d="M2309.22,-553.649C2336.76,-550.775 2368.88,-547.423 2397.34,-544.453"/>
<polygon fill="#757575" stroke="#757575" points="2398.06,-547.897 2407.65,-543.378 2397.34,-540.934 2398.06,-547.897"/>
</g>
<!-- ../observer/index.js&#45;&gt;../util/index.js -->
<g id="edge7" class="edge"><title>../observer/index.js&#45;&gt;../util/index.js</title>
<path fill="none" stroke="#757575" d="M2174.77,-560.024C2085.58,-553.185 1922.34,-532.518 1786,-499.558 1736.34,-487.552 1680.12,-467.236 1648.68,-452.495"/>
<polygon fill="#757575" stroke="#757575" points="1649.9,-449.196 1639.38,-447.923 1646.81,-455.477 1649.9,-449.196"/>
</g>
<!-- ../observer/index.js&#45;&gt;../observer/dep.js -->
<g id="edge6" class="edge"><title>../observer/index.js&#45;&gt;../observer/dep.js</title>
<path fill="none" stroke="#757575" d="M2214.33,-571.848C2182.1,-585.079 2125.97,-606.811 2076,-619.558 1807.45,-688.072 1736.31,-694.937 1460,-716.558 1338.59,-726.058 1298.51,-763.16 1186,-716.558 1165.09,-707.899 1168.69,-693.318 1150,-680.558 1046.62,-609.967 991.736,-643.212 892,-567.558 871.869,-552.288 878.302,-535.434 856,-523.558 783.415,-484.907 546.639,-477.686 426.421,-476.57"/>
<polygon fill="#757575" stroke="#757575" points="426.241,-473.069 416.213,-476.488 426.184,-480.069 426.241,-473.069"/>
</g>
<!-- ../vdom/vnode.js -->
<g id="node7" class="node"><title>../vdom/vnode.js</title>
<path fill="none" stroke="#cfffac" d="M2525.33,-1033.06C2525.33,-1033.06 2422.67,-1033.06 2422.67,-1033.06 2418.83,-1033.06 2415,-1029.22 2415,-1025.39 2415,-1025.39 2415,-1017.72 2415,-1017.72 2415,-1013.89 2418.83,-1010.06 2422.67,-1010.06 2422.67,-1010.06 2525.33,-1010.06 2525.33,-1010.06 2529.17,-1010.06 2533,-1013.89 2533,-1017.72 2533,-1017.72 2533,-1025.39 2533,-1025.39 2533,-1029.22 2529.17,-1033.06 2525.33,-1033.06"/>
<text text-anchor="middle" x="2474" y="-1017.86" font-family="Arial" font-size="14.00" fill="#cfffac">../vdom/vnode.js</text>
</g>
<!-- ../observer/index.js&#45;&gt;../vdom/vnode.js -->
<g id="edge8" class="edge"><title>../observer/index.js&#45;&gt;../vdom/vnode.js</title>
<path fill="none" stroke="#757575" d="M2248.69,-571.954C2279.13,-632.985 2423.02,-921.384 2462.79,-1001.1"/>
<polygon fill="#757575" stroke="#757575" points="2459.71,-1002.76 2467.31,-1010.15 2465.97,-999.637 2459.71,-1002.76"/>
</g>
<!-- ../observer/scheduler.js&#45;&gt;../config.js -->
<g id="edge9" class="edge"><title>../observer/scheduler.js&#45;&gt;../config.js</title>
<path fill="none" stroke="#757575" d="M839.655,-554.028C845.494,-556.573 851.031,-559.707 856,-563.558 885.225,-586.208 863.794,-614.651 892,-638.558 983.094,-715.768 1044.11,-658.361 1150,-713.558 1168.22,-723.055 1166.97,-734.824 1186,-742.558 1339.85,-805.073 1763.94,-812.558 1930,-812.558 1930,-812.558 1930,-812.558 2243,-812.558 2417.27,-812.558 2451.37,-706.607 2540,-556.558 2606.55,-443.881 2614.51,-280.406 2615.12,-222.161"/>
<polygon fill="#757575" stroke="#757575" points="2618.62,-221.976 2615.16,-211.962 2611.62,-221.948 2618.62,-221.976"/>
</g>
<!-- ../observer/scheduler.js&#45;&gt;../util/index.js -->
<g id="edge11" class="edge"><title>../observer/scheduler.js&#45;&gt;../util/index.js</title>
<path fill="none" stroke="#757575" d="M781.716,-533.18C807.315,-520.364 851.509,-500.085 892,-490.558 1136.86,-432.948 1439.48,-432.143 1564.16,-434.741"/>
<polygon fill="#757575" stroke="#757575" points="1564.17,-438.242 1574.25,-434.967 1564.33,-431.244 1564.17,-438.242"/>
</g>
<!-- ../observer/scheduler.js&#45;&gt;../observer/watcher.js -->
<g id="edge10" class="edge"><title>../observer/scheduler.js&#45;&gt;../observer/watcher.js</title>
<path fill="none" stroke="#757575" d="M678.126,-551.089C660.631,-551.358 642.056,-551.379 624.39,-551.153"/>
<polygon fill="#757575" stroke="#757575" points="624.163,-547.649 614.109,-550.991 624.053,-554.648 624.163,-547.649"/>
</g>
<!-- lifecycle.js -->
<g id="node9" class="node"><title>lifecycle.js</title>
<path fill="none" stroke="#ff6c60" d="M1053.33,-746.058C1053.33,-746.058 988.667,-746.058 988.667,-746.058 984.833,-746.058 981,-742.225 981,-738.391 981,-738.391 981,-730.725 981,-730.725 981,-726.891 984.833,-723.058 988.667,-723.058 988.667,-723.058 1053.33,-723.058 1053.33,-723.058 1057.17,-723.058 1061,-726.891 1061,-730.725 1061,-730.725 1061,-738.391 1061,-738.391 1061,-742.225 1057.17,-746.058 1053.33,-746.058"/>
<text text-anchor="middle" x="1021" y="-730.858" font-family="Arial" font-size="14.00" fill="#ff6c60">lifecycle.js</text>
</g>
<!-- ../observer/scheduler.js&#45;&gt;lifecycle.js -->
<g id="edge12" class="edge"><title>../observer/scheduler.js&#45;&gt;lifecycle.js</title>
<path fill="none" stroke="#757575" d="M834.165,-555.839C842.264,-559.507 849.802,-564.302 856,-570.558 900.612,-615.587 845.969,-664.982 892,-708.558 912.789,-728.238 944.202,-734.831 970.705,-736.459"/>
<polygon fill="#757575" stroke="#757575" points="970.833,-739.966 980.963,-736.863 971.109,-732.972 970.833,-739.966"/>
</g>
<!-- lifecycle.js&#45;&gt;../config.js -->
<g id="edge90" class="edge"><title>lifecycle.js&#45;&gt;../config.js</title>
<path fill="none" stroke="#757575" d="M1048.92,-745.874C1075.13,-757.147 1115.89,-775.355 1150,-793.558 1166.54,-802.387 1168.17,-809.761 1186,-815.558 1370.88,-875.662 1427.6,-850.558 1622,-850.558 1622,-850.558 1622,-850.558 2243,-850.558 2375.43,-850.558 2444.57,-918.375 2540,-826.558 2584.66,-783.586 2609,-326.627 2614.02,-221.872"/>
<polygon fill="#757575" stroke="#757575" points="2617.52,-222.015 2614.49,-211.861 2610.53,-221.686 2617.52,-222.015"/>
</g>
<!-- lifecycle.js&#45;&gt;../util/index.js -->
<g id="edge94" class="edge"><title>lifecycle.js&#45;&gt;../util/index.js</title>
<path fill="none" stroke="#757575" d="M1029.23,-723.226C1049.61,-692.299 1111.01,-606.116 1186,-566.558 1295.35,-508.872 1342.68,-557.566 1460,-518.558 1510.09,-501.902 1563.97,-471.946 1595.25,-453.22"/>
<polygon fill="#757575" stroke="#757575" points="1597.09,-456.2 1603.83,-448.026 1593.46,-450.213 1597.09,-456.2"/>
</g>
<!-- lifecycle.js&#45;&gt;../observer/dep.js -->
<g id="edge91" class="edge"><title>lifecycle.js&#45;&gt;../observer/dep.js</title>
<path fill="none" stroke="#757575" d="M980.86,-734.784C953.654,-733.11 917.79,-727.07 892,-708.558 866.114,-689.978 881.887,-665.137 856,-646.558 818.787,-619.852 492.868,-585.242 452,-564.558 418.656,-547.683 388.145,-516.204 370.573,-495.828"/>
<polygon fill="#757575" stroke="#757575" points="373.191,-493.503 364.073,-488.106 367.835,-498.011 373.191,-493.503"/>
</g>
<!-- lifecycle.js&#45;&gt;../observer/watcher.js -->
<g id="edge93" class="edge"><title>lifecycle.js&#45;&gt;../observer/watcher.js</title>
<path fill="none" stroke="#757575" d="M980.95,-736.21C953.078,-735.312 916.36,-729.616 892,-708.558 856.264,-677.667 891.744,-639.439 856,-608.558 846.789,-600.6 704.15,-573.9 613.693,-557.607"/>
<polygon fill="#757575" stroke="#757575" points="614.212,-554.144 603.75,-555.82 612.973,-561.034 614.212,-554.144"/>
</g>
<!-- lifecycle.js&#45;&gt;../observer/index.js -->
<g id="edge92" class="edge"><title>lifecycle.js&#45;&gt;../observer/index.js</title>
<path fill="none" stroke="#757575" d="M1058.84,-745.885C1199.25,-786.918 1711.34,-916.851 2076,-750.558 2153.85,-715.056 2209.16,-622.669 2230.85,-581.216"/>
<polygon fill="#757575" stroke="#757575" points="2234.09,-582.559 2235.52,-572.061 2227.86,-579.376 2234.09,-582.559"/>
</g>
<!-- lifecycle.js&#45;&gt;../vdom/vnode.js -->
<g id="edge96" class="edge"><title>lifecycle.js&#45;&gt;../vdom/vnode.js</title>
<path fill="none" stroke="#757575" d="M1061.24,-745.088C1088.85,-754.154 1125.15,-769.622 1150,-793.558 1175.48,-818.104 1156.37,-845.22 1186,-864.558 1267.26,-917.595 1524.96,-888.558 1622,-888.558 1622,-888.558 1622,-888.558 1932,-888.558 2130.76,-888.558 2184.06,-903.859 2372,-968.558 2398.67,-977.74 2426.93,-993.112 2446.75,-1004.94"/>
<polygon fill="#757575" stroke="#757575" points="2445.13,-1008.06 2455.5,-1010.26 2448.77,-1002.07 2445.13,-1008.06"/>
</g>
<!-- ../util/perf.js -->
<g id="node18" class="node"><title>../util/perf.js</title>
<path fill="none" stroke="#c6c5fe" d="M1359.33,-210.058C1359.33,-210.058 1286.67,-210.058 1286.67,-210.058 1282.83,-210.058 1279,-206.225 1279,-202.391 1279,-202.391 1279,-194.725 1279,-194.725 1279,-190.891 1282.83,-187.058 1286.67,-187.058 1286.67,-187.058 1359.33,-187.058 1359.33,-187.058 1363.17,-187.058 1367,-190.891 1367,-194.725 1367,-194.725 1367,-202.391 1367,-202.391 1367,-206.225 1363.17,-210.058 1359.33,-210.058"/>
<text text-anchor="middle" x="1323" y="-194.858" font-family="Arial" font-size="14.00" fill="#c6c5fe">../util/perf.js</text>
</g>
<!-- lifecycle.js&#45;&gt;../util/perf.js -->
<g id="edge95" class="edge"><title>lifecycle.js&#45;&gt;../util/perf.js</title>
<path fill="none" stroke="#757575" d="M1028.4,-723.115C1066.3,-655.408 1261.19,-307.212 1310.6,-218.926"/>
<polygon fill="#757575" stroke="#757575" points="1313.7,-220.557 1315.53,-210.122 1307.59,-217.138 1313.7,-220.557"/>
</g>
<!-- render&#45;helpers/resolve&#45;slots.js -->
<g id="node27" class="node"><title>render&#45;helpers/resolve&#45;slots.js</title>
<path fill="none" stroke="#cfffac" d="M1417.33,-1019.06C1417.33,-1019.06 1228.67,-1019.06 1228.67,-1019.06 1224.83,-1019.06 1221,-1015.22 1221,-1011.39 1221,-1011.39 1221,-1003.72 1221,-1003.72 1221,-999.891 1224.83,-996.058 1228.67,-996.058 1228.67,-996.058 1417.33,-996.058 1417.33,-996.058 1421.17,-996.058 1425,-999.891 1425,-1003.72 1425,-1003.72 1425,-1011.39 1425,-1011.39 1425,-1015.22 1421.17,-1019.06 1417.33,-1019.06"/>
<text text-anchor="middle" x="1323" y="-1003.86" font-family="Arial" font-size="14.00" fill="#cfffac">render&#45;helpers/resolve&#45;slots.js</text>
</g>
<!-- lifecycle.js&#45;&gt;render&#45;helpers/resolve&#45;slots.js -->
<g id="edge98" class="edge"><title>lifecycle.js&#45;&gt;render&#45;helpers/resolve&#45;slots.js</title>
<path fill="none" stroke="#757575" d="M1061.03,-742.427C1090.03,-750.354 1128.2,-765.565 1150,-793.558 1203.61,-862.402 1123.34,-925.828 1186,-986.558 1193.33,-993.666 1202.01,-998.986 1211.38,-1002.92"/>
<polygon fill="#757575" stroke="#757575" points="1210.36,-1006.27 1220.95,-1006.4 1212.75,-999.691 1210.36,-1006.27"/>
</g>
<!-- events.js -->
<g id="node34" class="node"><title>events.js</title>
<path fill="none" stroke="#ff6c60" d="M1351.33,-978.058C1351.33,-978.058 1294.67,-978.058 1294.67,-978.058 1290.83,-978.058 1287,-974.225 1287,-970.391 1287,-970.391 1287,-962.725 1287,-962.725 1287,-958.891 1290.83,-955.058 1294.67,-955.058 1294.67,-955.058 1351.33,-955.058 1351.33,-955.058 1355.17,-955.058 1359,-958.891 1359,-962.725 1359,-962.725 1359,-970.391 1359,-970.391 1359,-974.225 1355.17,-978.058 1351.33,-978.058"/>
<text text-anchor="middle" x="1323" y="-962.858" font-family="Arial" font-size="14.00" fill="#ff6c60">events.js</text>
</g>
<!-- lifecycle.js&#45;&gt;events.js -->
<g id="edge97" class="edge"><title>lifecycle.js&#45;&gt;events.js</title>
<path fill="none" stroke="#757575" d="M1061.18,-743.641C1089.48,-752.108 1126.69,-767.459 1150,-793.558 1183.98,-831.612 1152.17,-864.37 1186,-902.558 1209.86,-929.495 1247.48,-945.983 1277.12,-955.463"/>
<polygon fill="#757575" stroke="#757575" points="1276.24,-958.855 1286.83,-958.414 1278.28,-952.157 1276.24,-958.855"/>
</g>
<!-- ../observer/traverse.js&#45;&gt;../util/index.js -->
<g id="edge13" class="edge"><title>../observer/traverse.js&#45;&gt;../util/index.js</title>
<path fill="none" stroke="#757575" d="M1096.75,-813.448C1116.2,-809.679 1135.68,-802.295 1150,-788.558 1198.22,-742.288 1137.16,-688.174 1186,-642.558 1276.36,-558.174 1349.95,-650.898 1460,-594.558 1526.13,-560.703 1582.96,-490.652 1608.14,-456.352"/>
<polygon fill="#757575" stroke="#757575" points="1611.11,-458.223 1614.12,-448.065 1605.43,-454.128 1611.11,-458.223"/>
</g>
<!-- ../observer/traverse.js&#45;&gt;../vdom/vnode.js -->
<g id="edge14" class="edge"><title>../observer/traverse.js&#45;&gt;../vdom/vnode.js</title>
<path fill="none" stroke="#757575" d="M1096.74,-818.955C1115.43,-822.833 1134.53,-829.451 1150,-840.558 1175.89,-859.139 1158.98,-885.671 1186,-902.558 1242.02,-937.569 2307.18,-975.816 2372,-988.558 2393.33,-992.75 2416.42,-1000.07 2435.13,-1006.76"/>
<polygon fill="#757575" stroke="#757575" points="2434.17,-1010.13 2444.76,-1010.28 2436.57,-1003.56 2434.17,-1010.13"/>
</g>
<!-- ../util/debug.js&#45;&gt;../config.js -->
<g id="edge19" class="edge"><title>../util/debug.js&#45;&gt;../config.js</title>
<path fill="none" stroke="#757575" d="M2525.54,-200.558C2538.65,-200.558 2552.73,-200.558 2565.77,-200.558"/>
<polygon fill="#757575" stroke="#757575" points="2565.96,-204.058 2575.96,-200.558 2565.96,-197.058 2565.96,-204.058"/>
</g>
<!-- ../util/error.js&#45;&gt;../config.js -->
<g id="edge20" class="edge"><title>../util/error.js&#45;&gt;../config.js</title>
<path fill="none" stroke="#757575" d="M2289.14,-160.535C2347.83,-161.184 2452.13,-164.616 2540,-179.558 2550.1,-181.275 2560.79,-183.815 2570.83,-186.54"/>
<polygon fill="#757575" stroke="#757575" points="2570.04,-189.954 2580.62,-189.303 2571.95,-183.217 2570.04,-189.954"/>
</g>
<!-- ../util/error.js&#45;&gt;../observer/dep.js -->
<g id="edge21" class="edge"><title>../util/error.js&#45;&gt;../observer/dep.js</title>
<path fill="none" stroke="#757575" d="M2194.97,-155.971C2046.97,-142.349 1570.5,-107.293 1186,-177.558 861.338,-236.888 495.132,-407.838 386.781,-460.754"/>
<polygon fill="#757575" stroke="#757575" points="385.12,-457.67 377.683,-465.216 388.203,-463.955 385.12,-457.67"/>
</g>
<!-- ../util/error.js&#45;&gt;../util/debug.js -->
<g id="edge22" class="edge"><title>../util/error.js&#45;&gt;../util/debug.js</title>
<path fill="none" stroke="#757575" d="M2289.27,-168.605C2324.67,-174.762 2373.8,-183.306 2412.35,-190.01"/>
<polygon fill="#757575" stroke="#757575" points="2411.96,-193.495 2422.41,-191.76 2413.16,-186.599 2411.96,-193.495"/>
</g>
<!-- ../util/error.js&#45;&gt;../util/env.js -->
<g id="edge23" class="edge"><title>../util/error.js&#45;&gt;../util/env.js</title>
<path fill="none" stroke="#757575" d="M2289.24,-163.621C2314.79,-166.815 2346.44,-173.32 2372,-186.558 2391.54,-196.679 2389.06,-209.344 2408,-220.558 2411.95,-222.899 2416.2,-225.012 2420.55,-226.913"/>
<polygon fill="#757575" stroke="#757575" points="2419.62,-230.307 2430.21,-230.741 2422.2,-223.8 2419.62,-230.307"/>
</g>
<!-- ../util/next&#45;tick.js&#45;&gt;../util/env.js -->
<g id="edge32" class="edge"><title>../util/next&#45;tick.js&#45;&gt;../util/env.js</title>
<path fill="none" stroke="#757575" d="M1989.09,-270.075C2024.44,-266.252 2070.81,-261.585 2112,-258.558 2221.37,-250.52 2349.67,-245.534 2420.07,-243.179"/>
<polygon fill="#757575" stroke="#757575" points="2420.56,-246.664 2430.44,-242.837 2420.33,-239.668 2420.56,-246.664"/>
</g>
<!-- ../util/next&#45;tick.js&#45;&gt;../util/error.js -->
<g id="edge33" class="edge"><title>../util/next&#45;tick.js&#45;&gt;../util/error.js</title>
<path fill="none" stroke="#757575" d="M1989.32,-271.903C2016.38,-268.289 2048.66,-261.887 2076,-250.558 2094,-243.102 2095.26,-235.521 2112,-225.558 2143.09,-207.052 2180.11,-188.759 2206.5,-176.318"/>
<polygon fill="#757575" stroke="#757575" points="2208.14,-179.416 2215.72,-172.009 2205.17,-173.076 2208.14,-179.416"/>
</g>
<!-- ../util/options.js&#45;&gt;../config.js -->
<g id="edge34" class="edge"><title>../util/options.js&#45;&gt;../config.js</title>
<path fill="none" stroke="#757575" d="M1982.77,-367.81C2066.02,-384.101 2235.91,-408.217 2372,-368.558 2468.54,-340.426 2559.73,-256.85 2597.15,-219.252"/>
<polygon fill="#757575" stroke="#757575" points="2599.79,-221.553 2604.3,-211.963 2594.8,-216.65 2599.79,-221.553"/>
</g>
<!-- ../util/options.js&#45;&gt;../observer/index.js -->
<g id="edge35" class="edge"><title>../util/options.js&#45;&gt;../observer/index.js</title>
<path fill="none" stroke="#757575" d="M1982.81,-367.909C2012.82,-376.744 2049.92,-391.633 2076,-415.558 2101.78,-439.208 2087.91,-460.19 2112,-485.558 2137.37,-512.276 2174.37,-532.456 2202.25,-545.116"/>
<polygon fill="#757575" stroke="#757575" points="2201.13,-548.449 2211.69,-549.279 2203.95,-542.043 2201.13,-548.449"/>
</g>
<!-- ../util/options.js&#45;&gt;../util/debug.js -->
<g id="edge36" class="edge"><title>../util/options.js&#45;&gt;../util/debug.js</title>
<path fill="none" stroke="#757575" d="M1985.81,-349.671C2103.02,-334.661 2371.03,-300.273 2372,-299.558 2403.04,-276.639 2379.01,-246.025 2408,-220.558 2409.73,-219.039 2411.57,-217.634 2413.5,-216.337"/>
<polygon fill="#757575" stroke="#757575" points="2415.44,-219.264 2422.43,-211.304 2412,-213.166 2415.44,-219.264"/>
</g>
<!-- ../util/options.js&#45;&gt;../util/env.js -->
<g id="edge37" class="edge"><title>../util/options.js&#45;&gt;../util/env.js</title>
<path fill="none" stroke="#757575" d="M1985.67,-364.947C2071.17,-375.911 2241.94,-387.859 2372,-333.558 2408.91,-318.149 2441.01,-283.126 2458.63,-261.012"/>
<polygon fill="#757575" stroke="#757575" points="2461.51,-263.014 2464.86,-252.964 2455.97,-258.731 2461.51,-263.014"/>
</g>
<!-- ../util/options.js&#45;&gt;../util/lang.js -->
<g id="edge38" class="edge"><title>../util/options.js&#45;&gt;../util/lang.js</title>
<path fill="none" stroke="#757575" d="M1985.52,-352.396C2013.32,-348.883 2047.37,-342.422 2076,-330.558 2094,-323.102 2094.08,-313.197 2112,-305.558 2135.52,-295.53 2163.14,-289.301 2186.77,-285.466"/>
<polygon fill="#757575" stroke="#757575" points="2187.61,-288.878 2196.97,-283.916 2186.56,-281.957 2187.61,-288.878"/>
</g>
<!-- ../util/props.js&#45;&gt;../observer/index.js -->
<g id="edge40" class="edge"><title>../util/props.js&#45;&gt;../observer/index.js</title>
<path fill="none" stroke="#757575" d="M1960.24,-447.891C2016.1,-470.308 2140.71,-520.313 2203.42,-545.479"/>
<polygon fill="#757575" stroke="#757575" points="2202.35,-548.82 2212.94,-549.296 2204.96,-542.324 2202.35,-548.82"/>
</g>
<!-- ../util/props.js&#45;&gt;../util/debug.js -->
<g id="edge41" class="edge"><title>../util/props.js&#45;&gt;../util/debug.js</title>
<path fill="none" stroke="#757575" d="M1980.66,-439.199C2070.07,-441.304 2261.44,-432.623 2372,-330.558 2409.8,-295.666 2371.3,-256.607 2408,-220.558 2409.68,-218.911 2411.49,-217.399 2413.4,-216.011"/>
<polygon fill="#757575" stroke="#757575" points="2415.53,-218.814 2422.33,-210.688 2411.95,-212.801 2415.53,-218.814"/>
</g>
<!-- ../util/perf.js&#45;&gt;../util/env.js -->
<g id="edge39" class="edge"><title>../util/perf.js&#45;&gt;../util/env.js</title>
<path fill="none" stroke="#757575" d="M1367.29,-200.178C1545.86,-206.861 2224.98,-232.276 2420.22,-239.583"/>
<polygon fill="#757575" stroke="#757575" points="2420.37,-243.091 2430.49,-239.967 2420.63,-236.096 2420.37,-243.091"/>
</g>
<!-- ../vdom/create&#45;component.js -->
<g id="node19" class="node"><title>../vdom/create&#45;component.js</title>
<path fill="none" stroke="#ff6c60" d="M847.833,-1133.06C847.833,-1133.06 670.167,-1133.06 670.167,-1133.06 666.333,-1133.06 662.5,-1129.22 662.5,-1125.39 662.5,-1125.39 662.5,-1117.72 662.5,-1117.72 662.5,-1113.89 666.333,-1110.06 670.167,-1110.06 670.167,-1110.06 847.833,-1110.06 847.833,-1110.06 851.667,-1110.06 855.5,-1113.89 855.5,-1117.72 855.5,-1117.72 855.5,-1125.39 855.5,-1125.39 855.5,-1129.22 851.667,-1133.06 847.833,-1133.06"/>
<text text-anchor="middle" x="759" y="-1117.86" font-family="Arial" font-size="14.00" fill="#ff6c60">../vdom/create&#45;component.js</text>
</g>
<!-- ../vdom/create&#45;component.js&#45;&gt;../util/index.js -->
<g id="edge42" class="edge"><title>../vdom/create&#45;component.js&#45;&gt;../util/index.js</title>
<path fill="none" stroke="#757575" d="M786.404,-1110.27C857.58,-1078.42 1054.47,-980.514 1150,-834.558 1189.68,-773.933 1133.08,-725.047 1186,-675.558 1276.03,-591.362 1352.9,-693.58 1460,-632.558 1535.12,-589.757 1590.12,-497.728 1611.81,-456.845"/>
<polygon fill="#757575" stroke="#757575" points="1614.99,-458.32 1616.49,-447.832 1608.78,-455.094 1614.99,-458.32"/>
</g>
<!-- ../vdom/create&#45;component.js&#45;&gt;../vdom/vnode.js -->
<g id="edge45" class="edge"><title>../vdom/create&#45;component.js&#45;&gt;../vdom/vnode.js</title>
<path fill="none" stroke="#757575" d="M855.78,-1114.46C990.701,-1104.22 1244.36,-1084.02 1460,-1061.56 1605.19,-1046.43 1640.3,-1030.46 1786,-1021.56 2012.09,-1007.74 2280.81,-1014.42 2404.49,-1018.8"/>
<polygon fill="#757575" stroke="#757575" points="2404.45,-1022.3 2414.57,-1019.16 2404.7,-1015.3 2404.45,-1022.3"/>
</g>
<!-- ../vdom/create&#45;component.js&#45;&gt;lifecycle.js -->
<g id="edge46" class="edge"><title>../vdom/create&#45;component.js&#45;&gt;lifecycle.js</title>
<path fill="none" stroke="#757575" d="M767.336,-1110.17C784.993,-1082.31 830.299,-1008.04 856,-940.558 879.942,-877.699 849.208,-845.455 892,-793.558 911.964,-769.346 944.05,-754.585 971.102,-745.883"/>
<polygon fill="#757575" stroke="#757575" points="972.252,-749.192 980.809,-742.945 970.224,-742.492 972.252,-749.192"/>
</g>
<!-- ../vdom/create&#45;functional&#45;component.js -->
<g id="node20" class="node"><title>../vdom/create&#45;functional&#45;component.js</title>
<path fill="none" stroke="#ff6c60" d="M1142.33,-1251.06C1142.33,-1251.06 899.667,-1251.06 899.667,-1251.06 895.833,-1251.06 892,-1247.22 892,-1243.39 892,-1243.39 892,-1235.72 892,-1235.72 892,-1231.89 895.833,-1228.06 899.667,-1228.06 899.667,-1228.06 1142.33,-1228.06 1142.33,-1228.06 1146.17,-1228.06 1150,-1231.89 1150,-1235.72 1150,-1235.72 1150,-1243.39 1150,-1243.39 1150,-1247.22 1146.17,-1251.06 1142.33,-1251.06"/>
<text text-anchor="middle" x="1021" y="-1235.86" font-family="Arial" font-size="14.00" fill="#ff6c60">../vdom/create&#45;functional&#45;component.js</text>
</g>
<!-- ../vdom/create&#45;component.js&#45;&gt;../vdom/create&#45;functional&#45;component.js -->
<g id="edge43" class="edge"><title>../vdom/create&#45;component.js&#45;&gt;../vdom/create&#45;functional&#45;component.js</title>
<path fill="none" stroke="#757575" d="M784.93,-1132.87C831.715,-1154.11 932.727,-1199.95 985.815,-1224.04"/>
<polygon fill="#757575" stroke="#757575" points="984.593,-1227.33 995.146,-1228.28 987.486,-1220.96 984.593,-1227.33"/>
</g>
<!-- ../vdom/helpers/index.js -->
<g id="node21" class="node"><title>../vdom/helpers/index.js</title>
<path fill="none" stroke="#c6c5fe" d="M1697.33,-1174.06C1697.33,-1174.06 1548.67,-1174.06 1548.67,-1174.06 1544.83,-1174.06 1541,-1170.22 1541,-1166.39 1541,-1166.39 1541,-1158.72 1541,-1158.72 1541,-1154.89 1544.83,-1151.06 1548.67,-1151.06 1548.67,-1151.06 1697.33,-1151.06 1697.33,-1151.06 1701.17,-1151.06 1705,-1154.89 1705,-1158.72 1705,-1158.72 1705,-1166.39 1705,-1166.39 1705,-1170.22 1701.17,-1174.06 1697.33,-1174.06"/>
<text text-anchor="middle" x="1623" y="-1158.86" font-family="Arial" font-size="14.00" fill="#c6c5fe">../vdom/helpers/index.js</text>
</g>
<!-- ../vdom/create&#45;component.js&#45;&gt;../vdom/helpers/index.js -->
<g id="edge44" class="edge"><title>../vdom/create&#45;component.js&#45;&gt;../vdom/helpers/index.js</title>
<path fill="none" stroke="#757575" d="M844.04,-1132.85C859.945,-1134.67 876.465,-1136.35 892,-1137.56 1121.42,-1155.36 1392.38,-1160.48 1530.72,-1161.96"/>
<polygon fill="#757575" stroke="#757575" points="1530.82,-1165.46 1540.85,-1162.07 1530.89,-1158.46 1530.82,-1165.46"/>
</g>
<!-- ../vdom/create&#45;functional&#45;component.js&#45;&gt;../util/index.js -->
<g id="edge53" class="edge"><title>../vdom/create&#45;functional&#45;component.js&#45;&gt;../util/index.js</title>
<path fill="none" stroke="#757575" d="M1077.54,-1228.3C1170.83,-1206.46 1358.71,-1149.34 1460,-1027.56 1609.27,-848.086 1621.67,-542.112 1622.17,-458.323"/>
<polygon fill="#757575" stroke="#757575" points="1625.67,-458.213 1622.17,-448.211 1618.67,-458.209 1625.67,-458.213"/>
</g>
<!-- ../vdom/create&#45;functional&#45;component.js&#45;&gt;../vdom/vnode.js -->
<g id="edge57" class="edge"><title>../vdom/create&#45;functional&#45;component.js&#45;&gt;../vdom/vnode.js</title>
<path fill="none" stroke="#757575" d="M1087.22,-1250.85C1252.81,-1277.94 1702.81,-1341.61 2076,-1303.56 2209.63,-1289.93 2266.94,-1326.25 2372,-1242.56 2437.09,-1190.7 2461.84,-1087.52 2469.77,-1042.92"/>
<polygon fill="#757575" stroke="#757575" points="2473.25,-1043.35 2471.44,-1032.91 2466.34,-1042.2 2473.25,-1043.35"/>
</g>
<!-- ../vdom/create&#45;element.js -->
<g id="node22" class="node"><title>../vdom/create&#45;element.js</title>
<path fill="none" stroke="#ff6c60" d="M618.333,-1113.06C618.333,-1113.06 459.667,-1113.06 459.667,-1113.06 455.833,-1113.06 452,-1109.22 452,-1105.39 452,-1105.39 452,-1097.72 452,-1097.72 452,-1093.89 455.833,-1090.06 459.667,-1090.06 459.667,-1090.06 618.333,-1090.06 618.333,-1090.06 622.167,-1090.06 626,-1093.89 626,-1097.72 626,-1097.72 626,-1105.39 626,-1105.39 626,-1109.22 622.167,-1113.06 618.333,-1113.06"/>
<text text-anchor="middle" x="539" y="-1097.86" font-family="Arial" font-size="14.00" fill="#ff6c60">../vdom/create&#45;element.js</text>
</g>
<!-- ../vdom/create&#45;functional&#45;component.js&#45;&gt;../vdom/create&#45;element.js -->
<g id="edge54" class="edge"><title>../vdom/create&#45;functional&#45;component.js&#45;&gt;../vdom/create&#45;element.js</title>
<path fill="none" stroke="#757575" d="M891.731,-1250.35C821.241,-1251.41 733.8,-1244.56 662,-1213.56 615.279,-1193.39 574.846,-1147.57 554.338,-1121.21"/>
<polygon fill="#757575" stroke="#757575" points="557.002,-1118.93 548.167,-1113.09 551.427,-1123.17 557.002,-1118.93"/>
</g>
<!-- ../vdom/helpers/normalize&#45;children.js -->
<g id="node23" class="node"><title>../vdom/helpers/normalize&#45;children.js</title>
<path fill="none" stroke="#cfffac" d="M2045.33,-1295.06C2045.33,-1295.06 1816.67,-1295.06 1816.67,-1295.06 1812.83,-1295.06 1809,-1291.22 1809,-1287.39 1809,-1287.39 1809,-1279.72 1809,-1279.72 1809,-1275.89 1812.83,-1272.06 1816.67,-1272.06 1816.67,-1272.06 2045.33,-1272.06 2045.33,-1272.06 2049.17,-1272.06 2053,-1275.89 2053,-1279.72 2053,-1279.72 2053,-1287.39 2053,-1287.39 2053,-1291.22 2049.17,-1295.06 2045.33,-1295.06"/>
<text text-anchor="middle" x="1931" y="-1279.86" font-family="Arial" font-size="14.00" fill="#cfffac">../vdom/helpers/normalize&#45;children.js</text>
</g>
<!-- ../vdom/create&#45;functional&#45;component.js&#45;&gt;../vdom/helpers/normalize&#45;children.js -->
<g id="edge55" class="edge"><title>../vdom/create&#45;functional&#45;component.js&#45;&gt;../vdom/helpers/normalize&#45;children.js</title>
<path fill="none" stroke="#757575" d="M1150,-1242.1C1295.49,-1245.49 1540.03,-1252.76 1750,-1266.56 1769.92,-1267.87 1791.05,-1269.57 1811.56,-1271.4"/>
<polygon fill="#757575" stroke="#757575" points="1811.3,-1274.89 1821.57,-1272.31 1811.93,-1267.92 1811.3,-1274.89"/>
</g>
<!-- ../vdom/helpers/normalize&#45;scoped&#45;slots.js -->
<g id="node24" class="node"><title>../vdom/helpers/normalize&#45;scoped&#45;slots.js</title>
<path fill="none" stroke="#cfffac" d="M1452.33,-1332.06C1452.33,-1332.06 1193.67,-1332.06 1193.67,-1332.06 1189.83,-1332.06 1186,-1328.22 1186,-1324.39 1186,-1324.39 1186,-1316.72 1186,-1316.72 1186,-1312.89 1189.83,-1309.06 1193.67,-1309.06 1193.67,-1309.06 1452.33,-1309.06 1452.33,-1309.06 1456.17,-1309.06 1460,-1312.89 1460,-1316.72 1460,-1316.72 1460,-1324.39 1460,-1324.39 1460,-1328.22 1456.17,-1332.06 1452.33,-1332.06"/>
<text text-anchor="middle" x="1323" y="-1316.86" font-family="Arial" font-size="14.00" fill="#cfffac">../vdom/helpers/normalize&#45;scoped&#45;slots.js</text>
</g>
<!-- ../vdom/create&#45;functional&#45;component.js&#45;&gt;../vdom/helpers/normalize&#45;scoped&#45;slots.js -->
<g id="edge56" class="edge"><title>../vdom/create&#45;functional&#45;component.js&#45;&gt;../vdom/helpers/normalize&#45;scoped&#45;slots.js</title>
<path fill="none" stroke="#757575" d="M1051.56,-1250.82C1084.12,-1262.9 1138.21,-1282.04 1186,-1294.56 1204.33,-1299.36 1224.27,-1303.67 1243.09,-1307.34"/>
<polygon fill="#757575" stroke="#757575" points="1242.63,-1310.81 1253.11,-1309.25 1243.94,-1303.94 1242.63,-1310.81"/>
</g>
<!-- inject.js -->
<g id="node25" class="node"><title>inject.js</title>
<path fill="none" stroke="#c6c5fe" d="M1346.83,-708.058C1346.83,-708.058 1299.17,-708.058 1299.17,-708.058 1295.33,-708.058 1291.5,-704.225 1291.5,-700.391 1291.5,-700.391 1291.5,-692.725 1291.5,-692.725 1291.5,-688.891 1295.33,-685.058 1299.17,-685.058 1299.17,-685.058 1346.83,-685.058 1346.83,-685.058 1350.67,-685.058 1354.5,-688.891 1354.5,-692.725 1354.5,-692.725 1354.5,-700.391 1354.5,-700.391 1354.5,-704.225 1350.67,-708.058 1346.83,-708.058"/>
<text text-anchor="middle" x="1323" y="-692.858" font-family="Arial" font-size="14.00" fill="#c6c5fe">inject.js</text>
</g>
<!-- ../vdom/create&#45;functional&#45;component.js&#45;&gt;inject.js -->
<g id="edge58" class="edge"><title>../vdom/create&#45;functional&#45;component.js&#45;&gt;inject.js</title>
<path fill="none" stroke="#757575" d="M1036.47,-1228.17C1063.26,-1206.28 1120.51,-1155.49 1150,-1099.56 1182.78,-1037.38 1160.92,-1011.22 1186,-945.558 1220.4,-855.481 1281.71,-757.57 1308.66,-716.473"/>
<polygon fill="#757575" stroke="#757575" points="1311.71,-718.207 1314.31,-707.935 1305.87,-714.347 1311.71,-718.207"/>
</g>
<!-- render&#45;helpers/index.js -->
<g id="node26" class="node"><title>render&#45;helpers/index.js</title>
<path fill="none" stroke="#c6c5fe" d="M1394.83,-1535.06C1394.83,-1535.06 1251.17,-1535.06 1251.17,-1535.06 1247.33,-1535.06 1243.5,-1531.22 1243.5,-1527.39 1243.5,-1527.39 1243.5,-1519.72 1243.5,-1519.72 1243.5,-1515.89 1247.33,-1512.06 1251.17,-1512.06 1251.17,-1512.06 1394.83,-1512.06 1394.83,-1512.06 1398.67,-1512.06 1402.5,-1515.89 1402.5,-1519.72 1402.5,-1519.72 1402.5,-1527.39 1402.5,-1527.39 1402.5,-1531.22 1398.67,-1535.06 1394.83,-1535.06"/>
<text text-anchor="middle" x="1323" y="-1519.86" font-family="Arial" font-size="14.00" fill="#c6c5fe">render&#45;helpers/index.js</text>
</g>
<!-- ../vdom/create&#45;functional&#45;component.js&#45;&gt;render&#45;helpers/index.js -->
<g id="edge59" class="edge"><title>../vdom/create&#45;functional&#45;component.js&#45;&gt;render&#45;helpers/index.js</title>
<path fill="none" stroke="#757575" d="M1034.13,-1251.04C1080.31,-1294.76 1245.39,-1451.03 1302.44,-1505.04"/>
<polygon fill="#757575" stroke="#757575" points="1300.38,-1507.91 1310.05,-1512.24 1305.19,-1502.82 1300.38,-1507.91"/>
</g>
<!-- ../vdom/create&#45;functional&#45;component.js&#45;&gt;render&#45;helpers/resolve&#45;slots.js -->
<g id="edge60" class="edge"><title>../vdom/create&#45;functional&#45;component.js&#45;&gt;render&#45;helpers/resolve&#45;slots.js</title>
<path fill="none" stroke="#757575" d="M1035.94,-1228.3C1064.11,-1205.6 1129.9,-1152.82 1186,-1109.56 1225.02,-1079.47 1270.98,-1045.25 1298.24,-1025.08"/>
<polygon fill="#757575" stroke="#757575" points="1300.44,-1027.81 1306.4,-1019.05 1296.27,-1022.18 1300.44,-1027.81"/>
</g>
<!-- ../vdom/helpers/index.js&#45;&gt;../vdom/helpers/normalize&#45;children.js -->
<g id="edge66" class="edge"><title>../vdom/helpers/index.js&#45;&gt;../vdom/helpers/normalize&#45;children.js</title>
<path fill="none" stroke="#757575" d="M1651.38,-1173.85C1677.84,-1185.41 1718.43,-1204.84 1750,-1227.56 1768.11,-1240.59 1765.99,-1252.69 1786,-1262.56 1790.89,-1264.97 1795.97,-1267.12 1801.19,-1269.04"/>
<polygon fill="#757575" stroke="#757575" points="1800.1,-1272.37 1810.7,-1272.26 1802.35,-1265.74 1800.1,-1272.37"/>
</g>
<!-- ../vdom/helpers/extract&#45;props.js -->
<g id="node28" class="node"><title>../vdom/helpers/extract&#45;props.js</title>
<path fill="none" stroke="#cfffac" d="M2029.33,-1095.06C2029.33,-1095.06 1832.67,-1095.06 1832.67,-1095.06 1828.83,-1095.06 1825,-1091.22 1825,-1087.39 1825,-1087.39 1825,-1079.72 1825,-1079.72 1825,-1075.89 1828.83,-1072.06 1832.67,-1072.06 1832.67,-1072.06 2029.33,-1072.06 2029.33,-1072.06 2033.17,-1072.06 2037,-1075.89 2037,-1079.72 2037,-1079.72 2037,-1087.39 2037,-1087.39 2037,-1091.22 2033.17,-1095.06 2029.33,-1095.06"/>
<text text-anchor="middle" x="1931" y="-1079.86" font-family="Arial" font-size="14.00" fill="#cfffac">../vdom/helpers/extract&#45;props.js</text>
</g>
<!-- ../vdom/helpers/index.js&#45;&gt;../vdom/helpers/extract&#45;props.js -->
<g id="edge62" class="edge"><title>../vdom/helpers/index.js&#45;&gt;../vdom/helpers/extract&#45;props.js</title>
<path fill="none" stroke="#757575" d="M1649.84,-1151.21C1681.38,-1137.82 1736.62,-1115.83 1786,-1103.56 1796.5,-1100.95 1807.53,-1098.65 1818.6,-1096.64"/>
<polygon fill="#757575" stroke="#757575" points="1819.52,-1100.03 1828.77,-1094.86 1818.32,-1093.13 1819.52,-1100.03"/>
</g>
<!-- ../vdom/helpers/get&#45;first&#45;component&#45;child.js -->
<g id="node29" class="node"><title>../vdom/helpers/get&#45;first&#45;component&#45;child.js</title>
<path fill="none" stroke="#c6c5fe" d="M2065.33,-1254.06C2065.33,-1254.06 1796.67,-1254.06 1796.67,-1254.06 1792.83,-1254.06 1789,-1250.22 1789,-1246.39 1789,-1246.39 1789,-1238.72 1789,-1238.72 1789,-1234.89 1792.83,-1231.06 1796.67,-1231.06 1796.67,-1231.06 2065.33,-1231.06 2065.33,-1231.06 2069.17,-1231.06 2073,-1234.89 2073,-1238.72 2073,-1238.72 2073,-1246.39 2073,-1246.39 2073,-1250.22 2069.17,-1254.06 2065.33,-1254.06"/>
<text text-anchor="middle" x="1931" y="-1238.86" font-family="Arial" font-size="14.00" fill="#c6c5fe">../vdom/helpers/get&#45;first&#45;component&#45;child.js</text>
</g>
<!-- ../vdom/helpers/index.js&#45;&gt;../vdom/helpers/get&#45;first&#45;component&#45;child.js -->
<g id="edge63" class="edge"><title>../vdom/helpers/index.js&#45;&gt;../vdom/helpers/get&#45;first&#45;component&#45;child.js</title>
<path fill="none" stroke="#757575" d="M1653.77,-1173.91C1685.98,-1185.86 1739.04,-1204.56 1786,-1216.56 1805.27,-1221.48 1826.21,-1225.82 1846.01,-1229.48"/>
<polygon fill="#757575" stroke="#757575" points="1845.47,-1232.94 1855.94,-1231.28 1846.72,-1226.05 1845.47,-1232.94"/>
</g>
<!-- ../vdom/helpers/is&#45;async&#45;placeholder.js -->
<g id="node30" class="node"><title>../vdom/helpers/is&#45;async&#45;placeholder.js</title>
<path fill="none" stroke="#cfffac" d="M2363.83,-1234.06C2363.83,-1234.06 2120.17,-1234.06 2120.17,-1234.06 2116.33,-1234.06 2112.5,-1230.22 2112.5,-1226.39 2112.5,-1226.39 2112.5,-1218.72 2112.5,-1218.72 2112.5,-1214.89 2116.33,-1211.06 2120.17,-1211.06 2120.17,-1211.06 2363.83,-1211.06 2363.83,-1211.06 2367.67,-1211.06 2371.5,-1214.89 2371.5,-1218.72 2371.5,-1218.72 2371.5,-1226.39 2371.5,-1226.39 2371.5,-1230.22 2367.67,-1234.06 2363.83,-1234.06"/>
<text text-anchor="middle" x="2242" y="-1218.86" font-family="Arial" font-size="14.00" fill="#cfffac">../vdom/helpers/is&#45;async&#45;placeholder.js</text>
</g>
<!-- ../vdom/helpers/index.js&#45;&gt;../vdom/helpers/is&#45;async&#45;placeholder.js -->
<g id="edge64" class="edge"><title>../vdom/helpers/index.js&#45;&gt;../vdom/helpers/is&#45;async&#45;placeholder.js</title>
<path fill="none" stroke="#757575" d="M1705.3,-1170.46C1809.77,-1180.62 1992.26,-1198.37 2114.84,-1210.29"/>
<polygon fill="#757575" stroke="#757575" points="2114.74,-1213.8 2125.03,-1211.28 2115.42,-1206.83 2114.74,-1213.8"/>
</g>
<!-- ../vdom/helpers/merge&#45;hook.js -->
<g id="node31" class="node"><title>../vdom/helpers/merge&#45;hook.js</title>
<path fill="none" stroke="#c6c5fe" d="M2025.83,-1054.06C2025.83,-1054.06 1836.17,-1054.06 1836.17,-1054.06 1832.33,-1054.06 1828.5,-1050.22 1828.5,-1046.39 1828.5,-1046.39 1828.5,-1038.72 1828.5,-1038.72 1828.5,-1034.89 1832.33,-1031.06 1836.17,-1031.06 1836.17,-1031.06 2025.83,-1031.06 2025.83,-1031.06 2029.67,-1031.06 2033.5,-1034.89 2033.5,-1038.72 2033.5,-1038.72 2033.5,-1046.39 2033.5,-1046.39 2033.5,-1050.22 2029.67,-1054.06 2025.83,-1054.06"/>
<text text-anchor="middle" x="1931" y="-1038.86" font-family="Arial" font-size="14.00" fill="#c6c5fe">../vdom/helpers/merge&#45;hook.js</text>
</g>
<!-- ../vdom/helpers/index.js&#45;&gt;../vdom/helpers/merge&#45;hook.js -->
<g id="edge65" class="edge"><title>../vdom/helpers/index.js&#45;&gt;../vdom/helpers/merge&#45;hook.js</title>
<path fill="none" stroke="#757575" d="M1640.44,-1151.19C1675.14,-1127.4 1755.21,-1073.64 1786,-1062.56 1796.38,-1058.82 1807.41,-1055.78 1818.57,-1053.3"/>
<polygon fill="#757575" stroke="#757575" points="1819.31,-1056.72 1828.39,-1051.27 1817.89,-1049.87 1819.31,-1056.72"/>
</g>
<!-- ../vdom/helpers/resolve&#45;async&#45;component.js -->
<g id="node32" class="node"><title>../vdom/helpers/resolve&#45;async&#45;component.js</title>
<path fill="none" stroke="#cfffac" d="M2068.33,-1136.06C2068.33,-1136.06 1793.67,-1136.06 1793.67,-1136.06 1789.83,-1136.06 1786,-1132.22 1786,-1128.39 1786,-1128.39 1786,-1120.72 1786,-1120.72 1786,-1116.89 1789.83,-1113.06 1793.67,-1113.06 1793.67,-1113.06 2068.33,-1113.06 2068.33,-1113.06 2072.17,-1113.06 2076,-1116.89 2076,-1120.72 2076,-1120.72 2076,-1128.39 2076,-1128.39 2076,-1132.22 2072.17,-1136.06 2068.33,-1136.06"/>
<text text-anchor="middle" x="1931" y="-1120.86" font-family="Arial" font-size="14.00" fill="#cfffac">../vdom/helpers/resolve&#45;async&#45;component.js</text>
</g>
<!-- ../vdom/helpers/index.js&#45;&gt;../vdom/helpers/resolve&#45;async&#45;component.js -->
<g id="edge67" class="edge"><title>../vdom/helpers/index.js&#45;&gt;../vdom/helpers/resolve&#45;async&#45;component.js</title>
<path fill="none" stroke="#757575" d="M1705.2,-1152.47C1743.23,-1147.75 1788.92,-1142.08 1829.14,-1137.08"/>
<polygon fill="#757575" stroke="#757575" points="1829.75,-1140.53 1839.24,-1135.83 1828.89,-1133.59 1829.75,-1140.53"/>
</g>
<!-- ../vdom/helpers/update&#45;listeners.js -->
<g id="node33" class="node"><title>../vdom/helpers/update&#45;listeners.js</title>
<path fill="none" stroke="#cfffac" d="M2349.33,-1153.06C2349.33,-1153.06 2134.67,-1153.06 2134.67,-1153.06 2130.83,-1153.06 2127,-1149.22 2127,-1145.39 2127,-1145.39 2127,-1137.72 2127,-1137.72 2127,-1133.89 2130.83,-1130.06 2134.67,-1130.06 2134.67,-1130.06 2349.33,-1130.06 2349.33,-1130.06 2353.17,-1130.06 2357,-1133.89 2357,-1137.72 2357,-1137.72 2357,-1145.39 2357,-1145.39 2357,-1149.22 2353.17,-1153.06 2349.33,-1153.06"/>
<text text-anchor="middle" x="2242" y="-1137.86" font-family="Arial" font-size="14.00" fill="#cfffac">../vdom/helpers/update&#45;listeners.js</text>
</g>
<!-- ../vdom/helpers/index.js&#45;&gt;../vdom/helpers/update&#45;listeners.js -->
<g id="edge68" class="edge"><title>../vdom/helpers/index.js&#45;&gt;../vdom/helpers/update&#45;listeners.js</title>
<path fill="none" stroke="#757575" d="M1705.3,-1159.79C1810.33,-1156.22 1994.21,-1149.96 2116.8,-1145.79"/>
<polygon fill="#757575" stroke="#757575" points="2117.11,-1149.28 2126.99,-1145.44 2116.87,-1142.28 2117.11,-1149.28"/>
</g>
<!-- ../vdom/create&#45;element.js&#45;&gt;../config.js -->
<g id="edge47" class="edge"><title>../vdom/create&#45;element.js&#45;&gt;../config.js</title>
<path fill="none" stroke="#757575" d="M626.279,-1097.84C789.62,-1090.09 1154.99,-1069.35 1460,-1027.56 1476.15,-1025.35 1479.93,-1023.31 1496,-1020.56 1727.17,-980.942 2377.09,-1034.29 2540,-865.558 2585.84,-818.081 2609.39,-331.045 2614.11,-222.098"/>
<polygon fill="#757575" stroke="#757575" points="2617.61,-222.128 2614.54,-211.988 2610.62,-221.83 2617.61,-222.128"/>
</g>
<!-- ../vdom/create&#45;element.js&#45;&gt;../util/index.js -->
<g id="edge49" class="edge"><title>../vdom/create&#45;element.js&#45;&gt;../util/index.js</title>
<path fill="none" stroke="#757575" d="M549.671,-1090.17C569.368,-1067.36 616.16,-1015.14 662,-978.558 741.425,-915.17 785.79,-931.022 856,-857.558 878.549,-833.965 865.143,-812.099 892,-793.558 987.437,-727.674 1065.13,-833.586 1150,-754.558 1203.34,-704.887 1132.35,-643.902 1186,-594.558 1276.49,-511.329 1346.18,-603.036 1460,-556.558 1518.69,-532.593 1575.42,-482.471 1603.59,-455.201"/>
<polygon fill="#757575" stroke="#757575" points="1606.4,-457.348 1611.07,-447.84 1601.49,-452.359 1606.4,-457.348"/>
</g>
<!-- ../vdom/create&#45;element.js&#45;&gt;../vdom/vnode.js -->
<g id="edge52" class="edge"><title>../vdom/create&#45;element.js&#45;&gt;../vdom/vnode.js</title>
<path fill="none" stroke="#757575" d="M552.473,-1112.96C569.953,-1129.26 602.256,-1160.58 626,-1190.56 644.369,-1213.75 638.515,-1228.56 662,-1246.56 794.541,-1348.13 853.017,-1360.56 1020,-1360.56 1020,-1360.56 1020,-1360.56 1324,-1360.56 1557.47,-1360.56 2188.11,-1430.41 2372,-1286.56 2450.59,-1225.08 2468.05,-1094.85 2471.91,-1043.26"/>
<polygon fill="#757575" stroke="#757575" points="2475.42,-1043.17 2472.57,-1032.97 2468.44,-1042.72 2475.42,-1043.17"/>
</g>
<!-- ../vdom/create&#45;element.js&#45;&gt;../observer/traverse.js -->
<g id="edge48" class="edge"><title>../vdom/create&#45;element.js&#45;&gt;../observer/traverse.js</title>
<path fill="none" stroke="#757575" d="M574.066,-1090.29C645.262,-1066.43 807.257,-1010.37 856,-978.558 919.452,-937.14 978.237,-867.995 1004.93,-834.268"/>
<polygon fill="#757575" stroke="#757575" points="1007.9,-836.154 1011.3,-826.119 1002.38,-831.844 1007.9,-836.154"/>
</g>
<!-- ../vdom/create&#45;element.js&#45;&gt;../vdom/create&#45;component.js -->
<g id="edge50" class="edge"><title>../vdom/create&#45;element.js&#45;&gt;../vdom/create&#45;component.js</title>
<path fill="none" stroke="#757575" d="M626.159,-1109.46C634.713,-1110.25 643.464,-1111.05 652.187,-1111.85"/>
<polygon fill="#757575" stroke="#757575" points="652.124,-1115.36 662.402,-1112.79 652.763,-1108.39 652.124,-1115.36"/>
</g>
<!-- ../vdom/create&#45;element.js&#45;&gt;../vdom/helpers/index.js -->
<g id="edge51" class="edge"><title>../vdom/create&#45;element.js&#45;&gt;../vdom/helpers/index.js</title>
<path fill="none" stroke="#757575" d="M568.079,-1112.89C592.481,-1122.22 628.996,-1134.96 662,-1141.56 1010.02,-1211.19 1105.22,-1181.41 1460,-1171.56 1482.93,-1170.92 1507.67,-1169.78 1530.75,-1168.52"/>
<polygon fill="#757575" stroke="#757575" points="1531.08,-1172 1540.87,-1167.95 1530.69,-1165.01 1531.08,-1172"/>
</g>
<!-- inject.js&#45;&gt;../util/index.js -->
<g id="edge89" class="edge"><title>inject.js&#45;&gt;../util/index.js</title>
<path fill="none" stroke="#757575" d="M1354.54,-697.155C1383.82,-696.327 1428.17,-691.28 1460,-670.558 1502.6,-642.827 1581.36,-508.531 1610.64,-456.868"/>
<polygon fill="#757575" stroke="#757575" points="1613.81,-458.389 1615.67,-447.96 1607.71,-454.952 1613.81,-458.389"/>
</g>
<!-- inject.js&#45;&gt;../observer/index.js -->
<g id="edge88" class="edge"><title>inject.js&#45;&gt;../observer/index.js</title>
<path fill="none" stroke="#757575" d="M1354.51,-692.033C1481.98,-673.129 1974.13,-600.138 2164.86,-571.85"/>
<polygon fill="#757575" stroke="#757575" points="2165.43,-575.304 2174.81,-570.375 2164.4,-568.38 2165.43,-575.304"/>
</g>
<!-- render&#45;helpers/bind&#45;dynamic&#45;keys.js -->
<g id="node40" class="node"><title>render&#45;helpers/bind&#45;dynamic&#45;keys.js</title>
<path fill="none" stroke="#cfffac" d="M1736.33,-1617.06C1736.33,-1617.06 1509.67,-1617.06 1509.67,-1617.06 1505.83,-1617.06 1502,-1613.22 1502,-1609.39 1502,-1609.39 1502,-1601.72 1502,-1601.72 1502,-1597.89 1505.83,-1594.06 1509.67,-1594.06 1509.67,-1594.06 1736.33,-1594.06 1736.33,-1594.06 1740.17,-1594.06 1744,-1597.89 1744,-1601.72 1744,-1601.72 1744,-1609.39 1744,-1609.39 1744,-1613.22 1740.17,-1617.06 1736.33,-1617.06"/>
<text text-anchor="middle" x="1623" y="-1601.86" font-family="Arial" font-size="14.00" fill="#cfffac">render&#45;helpers/bind&#45;dynamic&#45;keys.js</text>
</g>
<!-- render&#45;helpers/index.js&#45;&gt;render&#45;helpers/bind&#45;dynamic&#45;keys.js -->
<g id="edge100" class="edge"><title>render&#45;helpers/index.js&#45;&gt;render&#45;helpers/bind&#45;dynamic&#45;keys.js</title>
<path fill="none" stroke="#757575" d="M1351.24,-1534.9C1384.77,-1548.47 1443.7,-1571.04 1496,-1584.56 1507.32,-1587.49 1519.33,-1590.1 1531.25,-1592.4"/>
<polygon fill="#757575" stroke="#757575" points="1530.76,-1595.87 1541.23,-1594.26 1532.04,-1588.99 1530.76,-1595.87"/>
</g>
<!-- render&#45;helpers/bind&#45;object&#45;listeners.js -->
<g id="node41" class="node"><title>render&#45;helpers/bind&#45;object&#45;listeners.js</title>
<path fill="none" stroke="#cfffac" d="M1740.83,-1576.06C1740.83,-1576.06 1505.17,-1576.06 1505.17,-1576.06 1501.33,-1576.06 1497.5,-1572.22 1497.5,-1568.39 1497.5,-1568.39 1497.5,-1560.72 1497.5,-1560.72 1497.5,-1556.89 1501.33,-1553.06 1505.17,-1553.06 1505.17,-1553.06 1740.83,-1553.06 1740.83,-1553.06 1744.67,-1553.06 1748.5,-1556.89 1748.5,-1560.72 1748.5,-1560.72 1748.5,-1568.39 1748.5,-1568.39 1748.5,-1572.22 1744.67,-1576.06 1740.83,-1576.06"/>
<text text-anchor="middle" x="1623" y="-1560.86" font-family="Arial" font-size="14.00" fill="#cfffac">render&#45;helpers/bind&#45;object&#45;listeners.js</text>
</g>
<!-- render&#45;helpers/index.js&#45;&gt;render&#45;helpers/bind&#45;object&#45;listeners.js -->
<g id="edge101" class="edge"><title>render&#45;helpers/index.js&#45;&gt;render&#45;helpers/bind&#45;object&#45;listeners.js</title>
<path fill="none" stroke="#757575" d="M1402.69,-1534.38C1441.79,-1539.76 1489.29,-1546.3 1530.07,-1551.91"/>
<polygon fill="#757575" stroke="#757575" points="1529.62,-1555.38 1540.01,-1553.28 1530.58,-1548.45 1529.62,-1555.38"/>
</g>
<!-- render&#45;helpers/bind&#45;object&#45;props.js -->
<g id="node42" class="node"><title>render&#45;helpers/bind&#45;object&#45;props.js</title>
<path fill="none" stroke="#cfffac" d="M1732.33,-1535.06C1732.33,-1535.06 1513.67,-1535.06 1513.67,-1535.06 1509.83,-1535.06 1506,-1531.22 1506,-1527.39 1506,-1527.39 1506,-1519.72 1506,-1519.72 1506,-1515.89 1509.83,-1512.06 1513.67,-1512.06 1513.67,-1512.06 1732.33,-1512.06 1732.33,-1512.06 1736.17,-1512.06 1740,-1515.89 1740,-1519.72 1740,-1519.72 1740,-1527.39 1740,-1527.39 1740,-1531.22 1736.17,-1535.06 1732.33,-1535.06"/>
<text text-anchor="middle" x="1623" y="-1519.86" font-family="Arial" font-size="14.00" fill="#cfffac">render&#45;helpers/bind&#45;object&#45;props.js</text>
</g>
<!-- render&#45;helpers/index.js&#45;&gt;render&#45;helpers/bind&#45;object&#45;props.js -->
<g id="edge102" class="edge"><title>render&#45;helpers/index.js&#45;&gt;render&#45;helpers/bind&#45;object&#45;props.js</title>
<path fill="none" stroke="#757575" d="M1402.69,-1523.56C1431.16,-1523.56 1464.08,-1523.56 1495.62,-1523.56"/>
<polygon fill="#757575" stroke="#757575" points="1495.8,-1527.06 1505.8,-1523.56 1495.8,-1520.06 1495.8,-1527.06"/>
</g>
<!-- render&#45;helpers/check&#45;keycodes.js -->
<g id="node43" class="node"><title>render&#45;helpers/check&#45;keycodes.js</title>
<path fill="none" stroke="#cfffac" d="M1728.33,-1494.06C1728.33,-1494.06 1517.67,-1494.06 1517.67,-1494.06 1513.83,-1494.06 1510,-1490.22 1510,-1486.39 1510,-1486.39 1510,-1478.72 1510,-1478.72 1510,-1474.89 1513.83,-1471.06 1517.67,-1471.06 1517.67,-1471.06 1728.33,-1471.06 1728.33,-1471.06 1732.17,-1471.06 1736,-1474.89 1736,-1478.72 1736,-1478.72 1736,-1486.39 1736,-1486.39 1736,-1490.22 1732.17,-1494.06 1728.33,-1494.06"/>
<text text-anchor="middle" x="1623" y="-1478.86" font-family="Arial" font-size="14.00" fill="#cfffac">render&#45;helpers/check&#45;keycodes.js</text>
</g>
<!-- render&#45;helpers/index.js&#45;&gt;render&#45;helpers/check&#45;keycodes.js -->
<g id="edge103" class="edge"><title>render&#45;helpers/index.js&#45;&gt;render&#45;helpers/check&#45;keycodes.js</title>
<path fill="none" stroke="#757575" d="M1402.69,-1512.73C1441.79,-1507.35 1489.29,-1500.82 1530.07,-1495.21"/>
<polygon fill="#757575" stroke="#757575" points="1530.58,-1498.67 1540.01,-1493.84 1529.62,-1491.73 1530.58,-1498.67"/>
</g>
<!-- render&#45;helpers/render&#45;list.js -->
<g id="node44" class="node"><title>render&#45;helpers/render&#45;list.js</title>
<path fill="none" stroke="#cfffac" d="M1709.33,-1453.06C1709.33,-1453.06 1536.67,-1453.06 1536.67,-1453.06 1532.83,-1453.06 1529,-1449.22 1529,-1445.39 1529,-1445.39 1529,-1437.72 1529,-1437.72 1529,-1433.89 1532.83,-1430.06 1536.67,-1430.06 1536.67,-1430.06 1709.33,-1430.06 1709.33,-1430.06 1713.17,-1430.06 1717,-1433.89 1717,-1437.72 1717,-1437.72 1717,-1445.39 1717,-1445.39 1717,-1449.22 1713.17,-1453.06 1709.33,-1453.06"/>
<text text-anchor="middle" x="1623" y="-1437.86" font-family="Arial" font-size="14.00" fill="#cfffac">render&#45;helpers/render&#45;list.js</text>
</g>
<!-- render&#45;helpers/index.js&#45;&gt;render&#45;helpers/render&#45;list.js -->
<g id="edge104" class="edge"><title>render&#45;helpers/index.js&#45;&gt;render&#45;helpers/render&#45;list.js</title>
<path fill="none" stroke="#757575" d="M1351.24,-1512.21C1384.77,-1498.65 1443.7,-1476.08 1496,-1462.56 1507.32,-1459.63 1519.33,-1457.02 1531.25,-1454.72"/>
<polygon fill="#757575" stroke="#757575" points="1532.04,-1458.13 1541.23,-1452.85 1530.76,-1451.25 1532.04,-1458.13"/>
</g>
<!-- render&#45;helpers/render&#45;slot.js -->
<g id="node45" class="node"><title>render&#45;helpers/render&#45;slot.js</title>
<path fill="none" stroke="#cfffac" d="M1711.33,-1412.06C1711.33,-1412.06 1534.67,-1412.06 1534.67,-1412.06 1530.83,-1412.06 1527,-1408.22 1527,-1404.39 1527,-1404.39 1527,-1396.72 1527,-1396.72 1527,-1392.89 1530.83,-1389.06 1534.67,-1389.06 1534.67,-1389.06 1711.33,-1389.06 1711.33,-1389.06 1715.17,-1389.06 1719,-1392.89 1719,-1396.72 1719,-1396.72 1719,-1404.39 1719,-1404.39 1719,-1408.22 1715.17,-1412.06 1711.33,-1412.06"/>
<text text-anchor="middle" x="1623" y="-1396.86" font-family="Arial" font-size="14.00" fill="#cfffac">render&#45;helpers/render&#45;slot.js</text>
</g>
<!-- render&#45;helpers/index.js&#45;&gt;render&#45;helpers/render&#45;slot.js -->
<g id="edge105" class="edge"><title>render&#45;helpers/index.js&#45;&gt;render&#45;helpers/render&#45;slot.js</title>
<path fill="none" stroke="#757575" d="M1338.69,-1512.24C1367.26,-1490.85 1433.06,-1444.55 1496,-1421.56 1503.63,-1418.77 1511.65,-1416.35 1519.8,-1414.25"/>
<polygon fill="#757575" stroke="#757575" points="1520.88,-1417.59 1529.78,-1411.85 1519.24,-1410.79 1520.88,-1417.59"/>
</g>
<!-- render&#45;helpers/render&#45;static.js -->
<g id="node46" class="node"><title>render&#45;helpers/render&#45;static.js</title>
<path fill="none" stroke="#cfffac" d="M1716.83,-1740.06C1716.83,-1740.06 1529.17,-1740.06 1529.17,-1740.06 1525.33,-1740.06 1521.5,-1736.22 1521.5,-1732.39 1521.5,-1732.39 1521.5,-1724.72 1521.5,-1724.72 1521.5,-1720.89 1525.33,-1717.06 1529.17,-1717.06 1529.17,-1717.06 1716.83,-1717.06 1716.83,-1717.06 1720.67,-1717.06 1724.5,-1720.89 1724.5,-1724.72 1724.5,-1724.72 1724.5,-1732.39 1724.5,-1732.39 1724.5,-1736.22 1720.67,-1740.06 1716.83,-1740.06"/>
<text text-anchor="middle" x="1623" y="-1724.86" font-family="Arial" font-size="14.00" fill="#cfffac">render&#45;helpers/render&#45;static.js</text>
</g>
<!-- render&#45;helpers/index.js&#45;&gt;render&#45;helpers/render&#45;static.js -->
<g id="edge106" class="edge"><title>render&#45;helpers/index.js&#45;&gt;render&#45;helpers/render&#45;static.js</title>
<path fill="none" stroke="#757575" d="M1330.83,-1535.04C1351.17,-1568.15 1415.07,-1664.17 1496,-1707.56 1500.95,-1710.21 1506.15,-1712.54 1511.5,-1714.59"/>
<polygon fill="#757575" stroke="#757575" points="1510.7,-1718.02 1521.29,-1717.99 1512.99,-1711.41 1510.7,-1718.02"/>
</g>
<!-- render&#45;helpers/resolve&#45;filter.js -->
<g id="node47" class="node"><title>render&#45;helpers/resolve&#45;filter.js</title>
<path fill="none" stroke="#cfffac" d="M1716.33,-1699.06C1716.33,-1699.06 1529.67,-1699.06 1529.67,-1699.06 1525.83,-1699.06 1522,-1695.22 1522,-1691.39 1522,-1691.39 1522,-1683.72 1522,-1683.72 1522,-1679.89 1525.83,-1676.06 1529.67,-1676.06 1529.67,-1676.06 1716.33,-1676.06 1716.33,-1676.06 1720.17,-1676.06 1724,-1679.89 1724,-1683.72 1724,-1683.72 1724,-1691.39 1724,-1691.39 1724,-1695.22 1720.17,-1699.06 1716.33,-1699.06"/>
<text text-anchor="middle" x="1623" y="-1683.86" font-family="Arial" font-size="14.00" fill="#cfffac">render&#45;helpers/resolve&#45;filter.js</text>
</g>
<!-- render&#45;helpers/index.js&#45;&gt;render&#45;helpers/resolve&#45;filter.js -->
<g id="edge107" class="edge"><title>render&#45;helpers/index.js&#45;&gt;render&#45;helpers/resolve&#45;filter.js</title>
<path fill="none" stroke="#757575" d="M1333.85,-1535.19C1358.17,-1563.05 1424.32,-1633.74 1496,-1666.56 1501.62,-1669.13 1507.52,-1671.4 1513.56,-1673.38"/>
<polygon fill="#757575" stroke="#757575" points="1512.56,-1676.74 1523.15,-1676.29 1514.59,-1670.04 1512.56,-1676.74"/>
</g>
<!-- render&#45;helpers/resolve&#45;scoped&#45;slots.js -->
<g id="node48" class="node"><title>render&#45;helpers/resolve&#45;scoped&#45;slots.js</title>
<path fill="none" stroke="#cfffac" d="M1742.33,-1658.06C1742.33,-1658.06 1503.67,-1658.06 1503.67,-1658.06 1499.83,-1658.06 1496,-1654.22 1496,-1650.39 1496,-1650.39 1496,-1642.72 1496,-1642.72 1496,-1638.89 1499.83,-1635.06 1503.67,-1635.06 1503.67,-1635.06 1742.33,-1635.06 1742.33,-1635.06 1746.17,-1635.06 1750,-1638.89 1750,-1642.72 1750,-1642.72 1750,-1650.39 1750,-1650.39 1750,-1654.22 1746.17,-1658.06 1742.33,-1658.06"/>
<text text-anchor="middle" x="1623" y="-1642.86" font-family="Arial" font-size="14.00" fill="#cfffac">render&#45;helpers/resolve&#45;scoped&#45;slots.js</text>
</g>
<!-- render&#45;helpers/index.js&#45;&gt;render&#45;helpers/resolve&#45;scoped&#45;slots.js -->
<g id="edge108" class="edge"><title>render&#45;helpers/index.js&#45;&gt;render&#45;helpers/resolve&#45;scoped&#45;slots.js</title>
<path fill="none" stroke="#757575" d="M1338.69,-1534.87C1367.26,-1556.27 1433.06,-1602.57 1496,-1625.56 1503.63,-1628.34 1511.65,-1630.76 1519.8,-1632.86"/>
<polygon fill="#757575" stroke="#757575" points="1519.24,-1636.33 1529.78,-1635.27 1520.88,-1629.52 1519.24,-1636.33"/>
</g>
<!-- ../vdom/helpers/get&#45;first&#45;component&#45;child.js&#45;&gt;../vdom/helpers/is&#45;async&#45;placeholder.js -->
<g id="edge61" class="edge"><title>../vdom/helpers/get&#45;first&#45;component&#45;child.js&#45;&gt;../vdom/helpers/is&#45;async&#45;placeholder.js</title>
<path fill="none" stroke="#757575" d="M2073.39,-1233.41C2083.06,-1232.78 2092.8,-1232.15 2102.46,-1231.53"/>
<polygon fill="#757575" stroke="#757575" points="2102.73,-1235.02 2112.48,-1230.88 2102.28,-1228.03 2102.73,-1235.02"/>
</g>
<!-- ../vdom/helpers/merge&#45;hook.js&#45;&gt;../vdom/vnode.js -->
<g id="edge70" class="edge"><title>../vdom/helpers/merge&#45;hook.js&#45;&gt;../vdom/vnode.js</title>
<path fill="none" stroke="#757575" d="M2033.76,-1038.61C2142.18,-1034.4 2310.82,-1027.85 2404.46,-1024.22"/>
<polygon fill="#757575" stroke="#757575" points="2404.81,-1027.71 2414.67,-1023.82 2404.54,-1020.71 2404.81,-1027.71"/>
</g>
<!-- ../vdom/helpers/merge&#45;hook.js&#45;&gt;../vdom/helpers/update&#45;listeners.js -->
<g id="edge69" class="edge"><title>../vdom/helpers/merge&#45;hook.js&#45;&gt;../vdom/helpers/update&#45;listeners.js</title>
<path fill="none" stroke="#757575" d="M2033.56,-1052.65C2047.96,-1055.24 2062.47,-1058.49 2076,-1062.56 2126.66,-1077.8 2181.24,-1106.65 2213.2,-1124.95"/>
<polygon fill="#757575" stroke="#757575" points="2211.57,-1128.05 2221.98,-1130.04 2215.08,-1121.99 2211.57,-1128.05"/>
</g>
<!-- events.js&#45;&gt;../util/index.js -->
<g id="edge71" class="edge"><title>events.js&#45;&gt;../util/index.js</title>
<path fill="none" stroke="#757575" d="M1330.36,-955.243C1367.97,-888.361 1561.2,-544.693 1610.53,-456.964"/>
<polygon fill="#757575" stroke="#757575" points="1613.72,-458.424 1615.57,-447.992 1607.62,-454.994 1613.72,-458.424"/>
</g>
<!-- events.js&#45;&gt;../vdom/helpers/index.js -->
<g id="edge72" class="edge"><title>events.js&#45;&gt;../vdom/helpers/index.js</title>
<path fill="none" stroke="#757575" d="M1359.23,-965.413C1387.93,-965.915 1428.67,-969.992 1460,-986.558 1530.73,-1023.96 1586.76,-1104.76 1610.15,-1142.44"/>
<polygon fill="#757575" stroke="#757575" points="1607.19,-1144.32 1615.38,-1151.04 1613.17,-1140.68 1607.19,-1144.32"/>
</g>
<!-- index.js -->
<g id="node35" class="node"><title>index.js</title>
<path fill="none" stroke="#c6c5fe" d="M56.3333,-652.058C56.3333,-652.058 7.66667,-652.058 7.66667,-652.058 3.83333,-652.058 0,-648.225 0,-644.391 0,-644.391 0,-636.725 0,-636.725 0,-632.891 3.83333,-629.058 7.66667,-629.058 7.66667,-629.058 56.3333,-629.058 56.3333,-629.058 60.1667,-629.058 64,-632.891 64,-636.725 64,-636.725 64,-644.391 64,-644.391 64,-648.225 60.1667,-652.058 56.3333,-652.058"/>
<text text-anchor="middle" x="32" y="-636.858" font-family="Arial" font-size="14.00" fill="#c6c5fe">index.js</text>
</g>
<!-- index.js&#45;&gt;../util/index.js -->
<g id="edge73" class="edge"><title>index.js&#45;&gt;../util/index.js</title>
<path fill="none" stroke="#757575" d="M34.0319,-629.184C41.8104,-546.787 94.4534,-44.5581 222,-44.5581 222,-44.5581 222,-44.5581 760,-44.5581 1076.68,-44.5581 1198.6,1.2004 1460,-177.558 1548.71,-238.223 1598.48,-365.12 1615.38,-415.392"/>
<polygon fill="#757575" stroke="#757575" points="1612.14,-416.745 1618.57,-425.165 1618.79,-414.572 1612.14,-416.745"/>
</g>
<!-- index.js&#45;&gt;lifecycle.js -->
<g id="edge76" class="edge"><title>index.js&#45;&gt;lifecycle.js</title>
<path fill="none" stroke="#757575" d="M64.2366,-646.809C155.662,-664.752 430.832,-716.236 662,-733.558 772.095,-741.808 901.768,-739.09 970.844,-736.654"/>
<polygon fill="#757575" stroke="#757575" points="971.127,-740.146 980.992,-736.282 970.871,-733.15 971.127,-740.146"/>
</g>
<!-- index.js&#45;&gt;events.js -->
<g id="edge74" class="edge"><title>index.js&#45;&gt;events.js</title>
<path fill="none" stroke="#757575" d="M36.7596,-651.849C52.0692,-695.468 114.091,-850.558 222,-850.558 222,-850.558 222,-850.558 355,-850.558 712.187,-850.558 1138.34,-929.545 1276.42,-957.162"/>
<polygon fill="#757575" stroke="#757575" points="1276.13,-960.673 1286.62,-959.214 1277.51,-953.81 1276.13,-960.673"/>
</g>
<!-- init.js -->
<g id="node36" class="node"><title>init.js</title>
<path fill="none" stroke="#c6c5fe" d="M146.333,-402.058C146.333,-402.058 107.667,-402.058 107.667,-402.058 103.833,-402.058 100,-398.225 100,-394.391 100,-394.391 100,-386.725 100,-386.725 100,-382.891 103.833,-379.058 107.667,-379.058 107.667,-379.058 146.333,-379.058 146.333,-379.058 150.167,-379.058 154,-382.891 154,-386.725 154,-386.725 154,-394.391 154,-394.391 154,-398.225 150.167,-402.058 146.333,-402.058"/>
<text text-anchor="middle" x="127" y="-386.858" font-family="Arial" font-size="14.00" fill="#c6c5fe">init.js</text>
</g>
<!-- index.js&#45;&gt;init.js -->
<g id="edge75" class="edge"><title>index.js&#45;&gt;init.js</title>
<path fill="none" stroke="#757575" d="M36.9211,-629.177C47.0079,-600.01 74.8309,-520.264 100,-454.558 105.564,-440.034 112.163,-423.801 117.32,-411.317"/>
<polygon fill="#757575" stroke="#757575" points="120.656,-412.411 121.26,-401.833 114.192,-409.726 120.656,-412.411"/>
</g>
<!-- render.js -->
<g id="node37" class="node"><title>render.js</title>
<path fill="none" stroke="#c6c5fe" d="M381.833,-1052.06C381.833,-1052.06 326.167,-1052.06 326.167,-1052.06 322.333,-1052.06 318.5,-1048.22 318.5,-1044.39 318.5,-1044.39 318.5,-1036.72 318.5,-1036.72 318.5,-1032.89 322.333,-1029.06 326.167,-1029.06 326.167,-1029.06 381.833,-1029.06 381.833,-1029.06 385.667,-1029.06 389.5,-1032.89 389.5,-1036.72 389.5,-1036.72 389.5,-1044.39 389.5,-1044.39 389.5,-1048.22 385.667,-1052.06 381.833,-1052.06"/>
<text text-anchor="middle" x="354" y="-1036.86" font-family="Arial" font-size="14.00" fill="#c6c5fe">render.js</text>
</g>
<!-- index.js&#45;&gt;render.js -->
<g id="edge77" class="edge"><title>index.js&#45;&gt;render.js</title>
<path fill="none" stroke="#757575" d="M33.784,-651.958C36.7008,-686.983 49.5237,-794.864 100,-864.558 157.29,-943.661 261.514,-999.441 316.611,-1024.94"/>
<polygon fill="#757575" stroke="#757575" points="315.431,-1028.25 325.983,-1029.2 318.33,-1021.88 315.431,-1028.25"/>
</g>
<!-- state.js -->
<g id="node38" class="node"><title>state.js</title>
<path fill="none" stroke="#c6c5fe" d="M245.833,-460.058C245.833,-460.058 200.167,-460.058 200.167,-460.058 196.333,-460.058 192.5,-456.225 192.5,-452.391 192.5,-452.391 192.5,-444.725 192.5,-444.725 192.5,-440.891 196.333,-437.058 200.167,-437.058 200.167,-437.058 245.833,-437.058 245.833,-437.058 249.667,-437.058 253.5,-440.891 253.5,-444.725 253.5,-444.725 253.5,-452.391 253.5,-452.391 253.5,-456.225 249.667,-460.058 245.833,-460.058"/>
<text text-anchor="middle" x="223" y="-444.858" font-family="Arial" font-size="14.00" fill="#c6c5fe">state.js</text>
</g>
<!-- index.js&#45;&gt;state.js -->
<g id="edge78" class="edge"><title>index.js&#45;&gt;state.js</title>
<path fill="none" stroke="#757575" d="M44.2568,-629.123C75.6968,-597.184 164.675,-506.793 203.499,-467.353"/>
<polygon fill="#757575" stroke="#757575" points="206.042,-469.758 210.563,-460.176 201.054,-464.848 206.042,-469.758"/>
</g>
<!-- init.js&#45;&gt;../config.js -->
<g id="edge79" class="edge"><title>init.js&#45;&gt;../config.js</title>
<path fill="none" stroke="#757575" d="M129.363,-379.249C134.794,-336.04 156.244,-182.118 190,-148.558 374.534,34.9041 497.786,-6.55811 758,-6.55811 758,-6.55811 758,-6.55811 2243,-6.55811 2376.71,-6.55811 2431.82,24.0278 2540,-54.5581 2582.26,-85.2536 2602.45,-146.832 2610.51,-179.339"/>
<polygon fill="#757575" stroke="#757575" points="2607.12,-180.215 2612.8,-189.163 2613.94,-178.63 2607.12,-180.215"/>
</g>
<!-- init.js&#45;&gt;../util/index.js -->
<g id="edge80" class="edge"><title>init.js&#45;&gt;../util/index.js</title>
<path fill="none" stroke="#757575" d="M140.073,-379.211C172.07,-350.376 262.792,-276.558 353,-276.558 353,-276.558 353,-276.558 1022,-276.558 1217.78,-276.558 1276.63,-254.958 1460,-323.558 1517.59,-345.101 1573.98,-391.899 1602.6,-418.008"/>
<polygon fill="#757575" stroke="#757575" points="1600.52,-420.857 1610.23,-425.09 1605.28,-415.724 1600.52,-420.857"/>
</g>
<!-- init.js&#45;&gt;lifecycle.js -->
<g id="edge84" class="edge"><title>init.js&#45;&gt;lifecycle.js</title>
<path fill="none" stroke="#757575" d="M135.406,-402.043C156.254,-433.504 218.72,-521.954 292,-570.558 513.056,-717.175 846.185,-734.172 970.72,-735.1"/>
<polygon fill="#757575" stroke="#757575" points="970.706,-738.6 980.721,-735.143 970.736,-731.6 970.706,-738.6"/>
</g>
<!-- init.js&#45;&gt;../util/perf.js -->
<g id="edge81" class="edge"><title>init.js&#45;&gt;../util/perf.js</title>
<path fill="none" stroke="#757575" d="M127.816,-379.097C127.898,-344.025 133.03,-237.058 190,-179.558 223.348,-145.9 245.134,-155.523 292,-148.558 662.451,-93.5073 1115.25,-161.815 1268.45,-188.634"/>
<polygon fill="#757575" stroke="#757575" points="1268.07,-192.122 1278.53,-190.415 1269.29,-185.228 1268.07,-192.122"/>
</g>
<!-- init.js&#45;&gt;inject.js -->
<g id="edge83" class="edge"><title>init.js&#45;&gt;inject.js</title>
<path fill="none" stroke="#757575" d="M154.224,-391.92C249.736,-397.348 587.473,-420.651 856,-490.558 991.781,-525.907 1022.45,-547.101 1150,-605.558 1201.79,-629.295 1259.99,-661.25 1293.68,-680.293"/>
<polygon fill="#757575" stroke="#757575" points="1292.08,-683.411 1302.5,-685.305 1295.54,-677.323 1292.08,-683.411"/>
</g>
<!-- init.js&#45;&gt;events.js -->
<g id="edge82" class="edge"><title>init.js&#45;&gt;events.js</title>
<path fill="none" stroke="#757575" d="M131.642,-402.039C139.634,-426.122 160.383,-483.041 190,-523.558 226.38,-573.328 240.56,-583.581 292,-617.558 438.94,-714.613 881.635,-831.982 892,-834.558 1004.89,-862.618 1052.44,-815.215 1150,-878.558 1174.19,-894.265 1162.42,-915.942 1186,-932.558 1212.67,-951.35 1248.69,-959.784 1276.97,-963.556"/>
<polygon fill="#757575" stroke="#757575" points="1276.66,-967.044 1287,-964.745 1277.48,-960.092 1276.66,-967.044"/>
</g>
<!-- init.js&#45;&gt;render.js -->
<g id="edge86" class="edge"><title>init.js&#45;&gt;render.js</title>
<path fill="none" stroke="#757575" d="M128.563,-402.113C131.077,-447.711 143.299,-619.082 190,-750.558 228.703,-859.518 306.563,-975.421 338.663,-1020.76"/>
<polygon fill="#757575" stroke="#757575" points="335.959,-1023 344.618,-1029.11 341.656,-1018.93 335.959,-1023"/>
</g>
<!-- init.js&#45;&gt;state.js -->
<g id="edge87" class="edge"><title>init.js&#45;&gt;state.js</title>
<path fill="none" stroke="#757575" d="M146.571,-402.017C160.347,-410.517 179.342,-422.237 194.824,-431.79"/>
<polygon fill="#757575" stroke="#757575" points="193.119,-434.85 203.467,-437.123 196.795,-428.893 193.119,-434.85"/>
</g>
<!-- proxy.js -->
<g id="node39" class="node"><title>proxy.js</title>
<path fill="none" stroke="#c6c5fe" d="M247.833,-212.058C247.833,-212.058 198.167,-212.058 198.167,-212.058 194.333,-212.058 190.5,-208.225 190.5,-204.391 190.5,-204.391 190.5,-196.725 190.5,-196.725 190.5,-192.891 194.333,-189.058 198.167,-189.058 198.167,-189.058 247.833,-189.058 247.833,-189.058 251.667,-189.058 255.5,-192.891 255.5,-196.725 255.5,-196.725 255.5,-204.391 255.5,-204.391 255.5,-208.225 251.667,-212.058 247.833,-212.058"/>
<text text-anchor="middle" x="223" y="-196.858" font-family="Arial" font-size="14.00" fill="#c6c5fe">proxy.js</text>
</g>
<!-- init.js&#45;&gt;proxy.js -->
<g id="edge85" class="edge"><title>init.js&#45;&gt;proxy.js</title>
<path fill="none" stroke="#757575" d="M133.378,-379.21C144.016,-356.818 168.572,-305.401 190,-262.558 196.942,-248.678 204.951,-233.161 211.22,-221.123"/>
<polygon fill="#757575" stroke="#757575" points="214.488,-222.425 216.015,-211.941 208.283,-219.185 214.488,-222.425"/>
</g>
<!-- render.js&#45;&gt;../util/index.js -->
<g id="edge109" class="edge"><title>render.js&#45;&gt;../util/index.js</title>
<path fill="none" stroke="#757575" d="M362.19,-1028.98C376.951,-1005.85 412.617,-953.073 452,-917.558 612.79,-772.56 1179.73,-520.692 1186,-518.558 1317.25,-473.921 1479.47,-451.516 1564.23,-442.147"/>
<polygon fill="#757575" stroke="#757575" points="1564.86,-445.599 1574.42,-441.042 1564.1,-438.64 1564.86,-445.599"/>
</g>
<!-- render.js&#45;&gt;../vdom/vnode.js -->
<g id="edge112" class="edge"><title>render.js&#45;&gt;../vdom/vnode.js</title>
<path fill="none" stroke="#757575" d="M355.672,-1051.99C361.779,-1144.61 415.625,-1768.56 758,-1768.56 758,-1768.56 758,-1768.56 1932,-1768.56 2300.4,-1768.56 2443.58,-1165.23 2468.81,-1043"/>
<polygon fill="#757575" stroke="#757575" points="2472.28,-1043.49 2470.83,-1032.99 2465.42,-1042.1 2472.28,-1043.49"/>
</g>
<!-- render.js&#45;&gt;lifecycle.js -->
<g id="edge113" class="edge"><title>render.js&#45;&gt;lifecycle.js</title>
<path fill="none" stroke="#757575" d="M381.79,-1029.3C458.371,-996.671 683.772,-897.388 856,-788.558 873.135,-777.73 873.582,-769.021 892,-760.558 916.61,-749.25 946.118,-742.834 970.597,-739.207"/>
<polygon fill="#757575" stroke="#757575" points="971.318,-742.641 980.751,-737.817 970.369,-735.706 971.318,-742.641"/>
</g>
<!-- render.js&#45;&gt;../vdom/create&#45;element.js -->
<g id="edge110" class="edge"><title>render.js&#45;&gt;../vdom/create&#45;element.js</title>
<path fill="none" stroke="#757575" d="M388.992,-1051.89C418.78,-1061.82 462.243,-1076.31 494.55,-1087.07"/>
<polygon fill="#757575" stroke="#757575" points="493.596,-1090.45 504.19,-1090.29 495.81,-1083.81 493.596,-1090.45"/>
</g>
<!-- render.js&#45;&gt;../vdom/helpers/normalize&#45;scoped&#45;slots.js -->
<g id="edge111" class="edge"><title>render.js&#45;&gt;../vdom/helpers/normalize&#45;scoped&#45;slots.js</title>
<path fill="none" stroke="#757575" d="M366.565,-1051.84C404.75,-1088.25 531.802,-1202.79 662,-1246.56 832.198,-1303.77 1039.56,-1318.76 1175.89,-1321.72"/>
<polygon fill="#757575" stroke="#757575" points="1175.92,-1325.23 1185.99,-1321.93 1176.06,-1318.23 1175.92,-1325.23"/>
</g>
<!-- render.js&#45;&gt;render&#45;helpers/index.js -->
<g id="edge114" class="edge"><title>render.js&#45;&gt;render&#45;helpers/index.js</title>
<path fill="none" stroke="#757575" d="M360.761,-1052.17C374.37,-1078.96 410.499,-1146.48 452,-1194.56 532.327,-1287.61 552.143,-1319.4 662,-1374.56 851.66,-1469.79 1102.34,-1504.81 1233.45,-1517.18"/>
<polygon fill="#757575" stroke="#757575" points="1233.17,-1520.67 1243.45,-1518.1 1233.82,-1513.7 1233.17,-1520.67"/>
</g>
<!-- render.js&#45;&gt;render&#45;helpers/resolve&#45;slots.js -->
<g id="edge115" class="edge"><title>render.js&#45;&gt;render&#45;helpers/resolve&#45;slots.js</title>
<path fill="none" stroke="#757575" d="M389.701,-1039.37C521.273,-1034.88 992.914,-1018.79 1210.53,-1011.36"/>
<polygon fill="#757575" stroke="#757575" points="1210.83,-1014.85 1220.7,-1011.02 1210.59,-1007.86 1210.83,-1014.85"/>
</g>
<!-- state.js&#45;&gt;../config.js -->
<g id="edge116" class="edge"><title>state.js&#45;&gt;../config.js</title>
<path fill="none" stroke="#757575" d="M226.936,-437.111C233.913,-412.152 253.832,-352.443 292,-319.558 506.042,-135.145 616.026,-170.059 892,-109.558 960.346,-94.5749 1567.75,-44.5581 1622,-44.5581 1622,-44.5581 1622,-44.5581 2243,-44.5581 2379.25,-44.5581 2424.48,-48.3084 2540,-120.558 2565.38,-136.434 2587.88,-162.995 2601.46,-181.122"/>
<polygon fill="#757575" stroke="#757575" points="2598.67,-183.234 2607.39,-189.259 2604.33,-179.115 2598.67,-183.234"/>
</g>
<!-- state.js&#45;&gt;../util/index.js -->
<g id="edge120" class="edge"><title>state.js&#45;&gt;../util/index.js</title>
<path fill="none" stroke="#757575" d="M231.55,-437.161C242.784,-421.126 265.452,-392.128 292,-376.558 389.259,-319.517 425.248,-314.558 538,-314.558 538,-314.558 538,-314.558 1022,-314.558 1235.54,-314.558 1483.42,-389.686 1580.24,-422.031"/>
<polygon fill="#757575" stroke="#757575" points="1579.35,-425.425 1589.95,-425.299 1581.59,-418.791 1579.35,-425.425"/>
</g>
<!-- state.js&#45;&gt;../observer/dep.js -->
<g id="edge117" class="edge"><title>state.js&#45;&gt;../observer/dep.js</title>
<path fill="none" stroke="#757575" d="M253.595,-454.982C264.798,-457.414 278.012,-460.282 291.084,-463.119"/>
<polygon fill="#757575" stroke="#757575" points="290.502,-466.574 301.017,-465.275 291.987,-459.733 290.502,-466.574"/>
</g>
<!-- state.js&#45;&gt;../observer/watcher.js -->
<g id="edge119" class="edge"><title>state.js&#45;&gt;../observer/watcher.js</title>
<path fill="none" stroke="#757575" d="M236.546,-459.914C249.491,-470.997 270.738,-487.476 292,-496.558 343.275,-518.46 404.851,-530.462 453.57,-536.988"/>
<polygon fill="#757575" stroke="#757575" points="453.398,-540.494 463.763,-538.299 454.291,-533.551 453.398,-540.494"/>
</g>
<!-- state.js&#45;&gt;../observer/index.js -->
<g id="edge118" class="edge"><title>state.js&#45;&gt;../observer/index.js</title>
<path fill="none" stroke="#757575" d="M253.612,-449.41C291.334,-450.547 358.53,-452.749 416,-455.558 1025.3,-485.34 1176.85,-506.828 1786,-539.558 1919.06,-546.707 2074.09,-553.543 2164.51,-557.381"/>
<polygon fill="#757575" stroke="#757575" points="2164.53,-560.885 2174.67,-557.811 2164.83,-553.891 2164.53,-560.885"/>
</g>
<!-- state.js&#45;&gt;lifecycle.js -->
<g id="edge121" class="edge"><title>state.js&#45;&gt;lifecycle.js</title>
<path fill="none" stroke="#757575" d="M231.28,-459.951C242.511,-476.744 265.552,-508.235 292,-527.558 354.389,-573.141 378.818,-570.767 452,-595.558 639.591,-659.107 871.145,-706.525 970.704,-725.49"/>
<polygon fill="#757575" stroke="#757575" points="970.293,-728.974 980.77,-727.396 971.596,-722.097 970.293,-728.974"/>
</g>
<!-- proxy.js&#45;&gt;../util/index.js -->
<g id="edge99" class="edge"><title>proxy.js&#45;&gt;../util/index.js</title>
<path fill="none" stroke="#757575" d="M255.597,-200.73C437.587,-201.905 1347.87,-210.372 1460,-262.558 1532.44,-296.275 1587.96,-378.503 1610.73,-416.59"/>
<polygon fill="#757575" stroke="#757575" points="1607.73,-418.399 1615.8,-425.266 1613.77,-414.866 1607.73,-418.399"/>
</g>
</g>
</svg>
